<svg xmlns="http://www.w3.org/2000/svg" xmlns:xlink="http://www.w3.org/1999/xlink" width="381.114" height="82.992" viewBox="0 0 381.114 82.992"><defs><clipPath id="a"><rect width="381.114" height="82.991" fill="#eb9e21"/></clipPath></defs><g transform="translate(0 0)"><path d="M3.564,3.564H79.428V79.428H3.564ZM0,82.991H82.991V0H0Z" transform="translate(0 0)" fill="#eb9e21"/><g transform="translate(0 0)"><g clip-path="url(#a)"><path d="M25.618,21c.452-1.1.911-2.024,1.249-2.659l6.1,4.984c-.561.739-1.088,1.485-1.57,2.219l-.106.163,1.749,1.351.381.287.122-.19c.151-.232.3-.461.452-.681.384-.564.779-1.112,1.175-1.63.451-.6.936-1.2,1.482-1.834.264-.306.5-.574.715-.8.192.21.413.454.651.728.505.583,1.006,1.2,1.486,1.825.523.687.989,1.341,1.427,2,.086.131.173.263.26.4l.124.194,2.13-1.642-.107-.163c-.531-.807-1.08-1.581-1.633-2.3l6-4.9A28.7,28.7,0,0,1,49,21.091l.1.257,2.287-1.764-.065-.15a31.694,31.694,0,0,0-2.037-3.957l-.838-1.341L45.59,16.471a53.471,53.471,0,0,0-7.266-8.923l-.954-.9-.954.9a52.893,52.893,0,0,0-7.324,9.009L26.13,14.137l-.838,1.341A31,31,0,0,0,23.3,19.344l-.065.15,2.281,1.76ZM37.37,10.554a54.688,54.688,0,0,1,6.02,7.712l-3.452,2.819c-.571-.647-1.152-1.259-1.663-1.75l-.905-.851-.908.85c-.031.028-.72.672-1.733,1.827l-3.433-2.8a54.546,54.546,0,0,1,6.073-7.8" transform="translate(4.186 1.199)" fill="#eb9e21"/><path d="M39.354,69.232a26.668,26.668,0,0,0,19.5-8.753,28.8,28.8,0,0,0,7.958-19.406,26.618,26.618,0,0,0-.566-5.465c-.124-.588-.406-1.167-2.41-1.8,1.186-2.393.916-3.013.753-3.388a28.834,28.834,0,0,0-8.772-11.172l-.909-.706L39.354,30.541,23.974,18.686l-.179-.139-.909.706a28.834,28.834,0,0,0-8.772,11.172c-.21.485-.34,1.186.754,3.388-2.006.628-2.287,1.209-2.411,1.8a26.637,26.637,0,0,0-.565,5.464,28.8,28.8,0,0,0,7.957,19.406,26.67,26.67,0,0,0,19.506,8.753M40.805,33l14.08-10.853a26.017,26.017,0,0,1,6.911,9.09,17.674,17.674,0,0,1-1.345,2.793l-.934,1.625,1.88.414a16.405,16.405,0,0,1,2.108.6,23.994,23.994,0,0,1,.407,4.4,24.565,24.565,0,0,1-6.67,16.7,28.4,28.4,0,0,1-16.436,8.6ZM15.2,36.672a16.349,16.349,0,0,1,2.108-.6l1.881-.414-.935-1.625a17.774,17.774,0,0,1-1.345-2.793,26.014,26.014,0,0,1,6.911-9.09L37.9,33V66.375a28.4,28.4,0,0,1-16.436-8.6,24.565,24.565,0,0,1-6.67-16.7,23.966,23.966,0,0,1,.407-4.4" transform="translate(2.142 3.342)" fill="#eb9e21"/><path d="M23.24,37.9c3.784,2.521,7.2,5.108,7.233,5.131l2.351,1.782V32.578L22.469,24.635l-.183.2a15.035,15.035,0,0,0-1.684,2.4,8.327,8.327,0,0,0-1.247,5.183A8.2,8.2,0,0,0,23.24,37.9m-.38-9.431,7.061,5.449v5.188c-1.279-.926-3.1-2.218-5.026-3.5A5.537,5.537,0,0,1,22.225,32a6,6,0,0,1,.635-3.525" transform="translate(3.475 4.439)" fill="#eb9e21"/><path d="M49.024,37.9A8.2,8.2,0,0,0,52.91,32.42a8.335,8.335,0,0,0-1.247-5.183,15.274,15.274,0,0,0-1.686-2.4l-.181-.2L39.439,32.578V44.814l2.353-1.782c.031-.024,3.448-2.609,7.232-5.131m-6.681-3.982L49.4,28.47a6,6,0,0,1,.635,3.525A5.541,5.541,0,0,1,47.37,35.6c-1.928,1.286-3.747,2.578-5.026,3.5Z" transform="translate(7.106 4.439)" fill="#eb9e21"/><path d="M54.587,35.841,52.33,37.57,39.974,47.064l-.523.4V58.995l2.076-1.132c.2-.109,4.848-2.649,6.1-3.561.06-.044.133-.093.216-.15l.045-.031c1.657-1.124,6.7-4.545,6.7-15.505Zm-8.3,16.1c-.132.09-.247.169-.34.236-.618.451-2.474,1.514-3.713,2.212V48.753L51.673,41.5c-.71,7.264-4.1,9.562-5.389,10.439" transform="translate(7.108 6.458)" fill="#eb9e21"/><path d="M24.662,54.141c.09.061.168.114.232.162,1.251.911,5.9,3.452,6.1,3.561l2.075,1.132V47.466l-.522-.4-12.358-9.5-2.255-1.729v2.776c0,10.96,5.043,14.382,6.729,15.524m5.626-5.388v5.632c-1.239-.7-3.093-1.761-3.714-2.214-.093-.067-.207-.145-.339-.235-1.292-.877-4.679-3.173-5.39-10.439Z" transform="translate(3.231 6.458)" fill="#eb9e21"/><path d="M0,82.991H82.991V0H0Zm79.427-3.563H3.563V3.564H79.427Z" transform="translate(0 0)" fill="#eb9e21"/><path d="M75.492,82.991h292.02V0H75.492Zm288.457-3.563H79.055V3.564H363.949Z" transform="translate(13.602 0)" fill="#eb9e21"/><path d="M25.618,21c.452-1.1.911-2.024,1.249-2.659l6.1,4.984c-.561.739-1.088,1.485-1.57,2.219l-.106.163,1.749,1.351.381.287.122-.19c.151-.232.3-.461.452-.681.384-.564.779-1.112,1.175-1.63.451-.6.936-1.2,1.482-1.834.264-.306.5-.574.715-.8.192.21.413.454.651.728.505.583,1.006,1.2,1.486,1.825.523.687.989,1.341,1.427,2,.086.131.173.263.26.4l.124.194,2.13-1.642-.107-.163c-.531-.807-1.08-1.581-1.633-2.3l6-4.9A28.7,28.7,0,0,1,49,21.091l.1.257,2.287-1.764-.065-.15a31.694,31.694,0,0,0-2.037-3.957l-.838-1.341L45.59,16.471a53.471,53.471,0,0,0-7.266-8.923l-.954-.9-.954.9a52.893,52.893,0,0,0-7.324,9.009L26.13,14.137l-.838,1.341A31,31,0,0,0,23.3,19.344l-.065.15,2.281,1.76ZM37.37,10.554a54.688,54.688,0,0,1,6.02,7.712l-3.452,2.819c-.571-.647-1.152-1.259-1.663-1.75l-.905-.851-.908.85c-.031.028-.72.672-1.733,1.827l-3.433-2.8a54.546,54.546,0,0,1,6.073-7.8" transform="translate(4.186 1.199)" fill="#eb9e21"/><path d="M39.354,69.232a26.668,26.668,0,0,0,19.5-8.753,28.8,28.8,0,0,0,7.958-19.406,26.618,26.618,0,0,0-.566-5.465c-.124-.588-.406-1.167-2.41-1.8,1.186-2.393.916-3.013.753-3.388a28.834,28.834,0,0,0-8.772-11.172l-.909-.706L39.354,30.541,23.974,18.686l-.179-.139-.909.706a28.834,28.834,0,0,0-8.772,11.172c-.21.485-.34,1.186.754,3.388-2.006.628-2.287,1.209-2.411,1.8a26.637,26.637,0,0,0-.565,5.464,28.8,28.8,0,0,0,7.957,19.406,26.67,26.67,0,0,0,19.506,8.753M40.805,33l14.08-10.853a26.017,26.017,0,0,1,6.911,9.09,17.674,17.674,0,0,1-1.345,2.793l-.934,1.625,1.88.414a16.405,16.405,0,0,1,2.108.6,23.994,23.994,0,0,1,.407,4.4,24.565,24.565,0,0,1-6.67,16.7,28.4,28.4,0,0,1-16.436,8.6ZM15.2,36.672a16.349,16.349,0,0,1,2.108-.6l1.881-.414-.935-1.625a17.774,17.774,0,0,1-1.345-2.793,26.014,26.014,0,0,1,6.911-9.09L37.9,33V66.375a28.4,28.4,0,0,1-16.436-8.6,24.565,24.565,0,0,1-6.67-16.7,23.966,23.966,0,0,1,.407-4.4" transform="translate(2.142 3.342)" fill="#eb9e21"/><path d="M23.24,37.9c3.784,2.521,7.2,5.108,7.233,5.131l2.351,1.782V32.578L22.469,24.635l-.183.2a15.035,15.035,0,0,0-1.684,2.4,8.327,8.327,0,0,0-1.247,5.183A8.2,8.2,0,0,0,23.24,37.9m-.38-9.431,7.061,5.449v5.188c-1.279-.926-3.1-2.218-5.026-3.5A5.537,5.537,0,0,1,22.225,32a6,6,0,0,1,.635-3.525" transform="translate(3.475 4.439)" fill="#eb9e21"/><path d="M49.024,37.9A8.2,8.2,0,0,0,52.91,32.42a8.335,8.335,0,0,0-1.247-5.183,15.274,15.274,0,0,0-1.686-2.4l-.181-.2L39.439,32.578V44.814l2.353-1.782c.031-.024,3.448-2.609,7.232-5.131m-6.681-3.982L49.4,28.47a6,6,0,0,1,.635,3.525A5.541,5.541,0,0,1,47.37,35.6c-1.928,1.286-3.747,2.578-5.026,3.5Z" transform="translate(7.106 4.439)" fill="#eb9e21"/><path d="M54.587,35.841,52.33,37.57,39.974,47.064l-.523.4V58.995l2.076-1.132c.2-.109,4.848-2.649,6.1-3.561.06-.044.133-.093.216-.15l.045-.031c1.657-1.124,6.7-4.545,6.7-15.505Zm-8.3,16.1c-.132.09-.247.169-.34.236-.618.451-2.474,1.514-3.713,2.212V48.753L51.673,41.5c-.71,7.264-4.1,9.562-5.389,10.439" transform="translate(7.108 6.458)" fill="#eb9e21"/><path d="M24.662,54.141c.09.061.168.114.232.162,1.251.911,5.9,3.452,6.1,3.561l2.075,1.132V47.466l-.522-.4-12.358-9.5-2.255-1.729v2.776c0,10.96,5.043,14.382,6.729,15.524m5.626-5.388v5.632c-1.239-.7-3.093-1.761-3.714-2.214-.093-.067-.207-.145-.339-.235-1.292-.877-4.679-3.173-5.39-10.439Z" transform="translate(3.231 6.458)" fill="#eb9e21"/><rect width="22.694" height="3.221" transform="translate(140.398 61.551)" fill="#eb9e21"/><rect width="22.694" height="3.221" transform="translate(308.592 61.551)" fill="#eb9e21"/><path d="M112.725,29.161v-.087c3.544-.832,5.3-2.8,5.3-7.265a8.272,8.272,0,0,0-2.232-5.952c-1.183-1.183-2.976-1.75-5.822-1.75H90.8V44.742h19.214c2.67,0,4.683-.569,5.952-1.838a8.384,8.384,0,0,0,2.32-6.346c0-4.99-1.97-6.565-5.559-7.4m-12.517-8.272h6.127c.918,0,1.269.132,1.488.351a3.03,3.03,0,0,1,.568,2.188,3.7,3.7,0,0,1-.613,2.408c-.262.262-.569.307-1.443.307h-6.127Zm7.834,16.675c-.307.307-.745.4-1.576.4h-6.258V32.094h6.258a2.107,2.107,0,0,1,1.619.438c.351.349.569.831.569,2.582,0,1.794-.307,2.144-.613,2.45" transform="translate(16.359 2.542)" fill="#eb9e21"/><path d="M146.109,14.106H136.7V32.4c0,2.845-.219,3.634-.613,4.028-.35.349-1.05.482-2.539.482h-2.933c-1.488,0-2.188-.132-2.539-.482-.393-.394-.613-1.183-.613-4.028V14.106h-9.41V32.444c0,6.784.876,8.841,2.539,10.5,1.4,1.4,3.151,1.8,7.09,1.8h8.8c3.939,0,5.69-.394,7.09-1.8,1.663-1.663,2.539-3.72,2.539-10.5Z" transform="translate(21.271 2.542)" fill="#eb9e21"/><path d="M174.018,37.127c-.132-4.42-1.882-5.426-4.946-6.127v-.086c3.545-.7,5.253-2.408,5.253-8.1,0-4.245-.657-5.778-2.015-7.134-1.181-1.181-2.888-1.576-5.952-1.576H146.795V44.742h9.41v-10.5h4.6c1.926,0,2.32.175,2.758.569.482.437.744.875.831,3.151a59.093,59.093,0,0,0,.525,6.784H174.5c-.175-1.663-.394-4.639-.482-7.616m-10.285-9.847c-.263.263-.745.351-2.451.351H156.2V21.065h5.077c1.707,0,2.144.087,2.451.349.438.394.7,1.1.7,2.889s-.218,2.537-.7,2.975" transform="translate(26.449 2.542)" fill="#eb9e21"/><path d="M183.345,14.106c-3.195,0-4.858.568-6.04,1.75-1.794,1.75-3.326,5.121-3.326,13.567s1.532,11.816,3.326,13.567c1.183,1.181,2.845,1.751,6.04,1.751H193.5c2.845,0,4.859-.526,6.127-1.8,1.708-1.708,3.064-4.289,3.064-11.685v-3.72H187.108v6.345h6.565v.22c0,2.188-.614,3.02-.919,3.327-.262.262-.744.349-1.97.349h-4.158c-1.356,0-1.75-.087-2.012-.349-.394-.394-.963-1.839-.963-8.01s.569-7.527.963-7.921c.262-.263.656-.349,2.012-.349h3.939c1.312,0,1.707.13,1.926.349.306.306.875.656.918,3.107h9.017c-.131-5.208-1.05-7.44-2.582-8.929-1.183-1.137-3.02-1.574-6.3-1.574Z" transform="translate(31.347 2.542)" fill="#eb9e21"/><path d="M231.41,14.106H222v11.51H211.758V14.106h-9.41V44.742h9.41V32.88H222V44.742h9.41Z" transform="translate(36.458 2.542)" fill="#eb9e21"/><path d="M256.977,37.652H241.352V32.487h11.379V25.922H241.352V21.2h15.624V14.106H231.943V44.742h25.034Z" transform="translate(41.791 2.542)" fill="#eb9e21"/><path d="M284.457,37.127c-.132-4.42-1.882-5.426-4.946-6.127v-.086c3.545-.7,5.252-2.408,5.252-8.1,0-4.245-.656-5.778-2.013-7.134-1.181-1.181-2.888-1.576-5.952-1.576H257.234V44.742h9.41v-10.5h4.6c1.926,0,2.32.175,2.758.569.482.437.743.875.831,3.151a59.078,59.078,0,0,0,.525,6.784h9.585c-.176-1.663-.394-4.639-.482-7.616m-10.285-9.847c-.263.263-.744.351-2.451.351h-5.077V21.065h5.077c1.708,0,2.144.087,2.451.349.438.394.7,1.1.7,2.889s-.218,2.537-.7,2.975" transform="translate(46.347 2.542)" fill="#eb9e21"/><path d="M311.627,35.158c0-4.115-.744-6.04-1.925-7.222a6.316,6.316,0,0,0-4.115-1.663l-9.146-1.05c-1.488-.176-2.057-.263-2.275-.482-.263-.263-.394-.788-.394-1.75a2.855,2.855,0,0,1,.35-1.8c.175-.173.7-.218,1.75-.218h4.376c1.138,0,1.576.089,1.839.351s.394.787.482,2.713h8.621c-.044-5.3-.743-7.22-2.057-8.534-.963-.963-2.582-1.4-5.426-1.4H291.932c-2.319,0-3.807.569-4.727,1.488-1.4,1.4-2.363,3.851-2.363,7.747,0,4.245.787,6.084,1.97,7.265a6.517,6.517,0,0,0,4.158,1.663l9.059,1.05a5.349,5.349,0,0,1,2.275.525A2.684,2.684,0,0,1,302.7,35.6c0,1.093-.131,1.707-.394,1.969-.218.22-.962.307-2.232.307h-4.42c-1.27,0-1.8-.087-2.057-.351-.219-.218-.394-.832-.481-3.107h-8.622c0,5.384.612,7.616,1.882,8.884,1.094,1.1,2.67,1.445,5.426,1.445h12.648c2.451,0,3.9-.569,4.815-1.488,1.4-1.4,2.363-3.895,2.363-8.1" transform="translate(51.259 2.542)" fill="#eb9e21"/><path d="M152.308,54.212v-.03a2.127,2.127,0,0,0,1.906-2.438,2.784,2.784,0,0,0-.785-2.344,3.072,3.072,0,0,0-2.075-.516h-8.465v1.953h1.57v7.016h-1.57v1.969h8.465a3.21,3.21,0,0,0,2.111-.563c.543-.453.86-1.062.86-2.5,0-1.735-.617-2.3-2.018-2.548m-4.953-3.406h2.878c.448,0,.6.047.692.126.149.124.224.342.224,1.108,0,.781-.076,1.031-.224,1.172-.112.094-.281.11-.692.11h-2.878Zm3.682,6.954c-.131.11-.3.142-.729.142h-2.953V55.073h2.953c.448,0,.6.032.71.124.169.126.243.345.243,1.314,0,.952-.093,1.141-.224,1.25" transform="translate(25.745 8.808)" fill="#eb9e21"/><path d="M165.939,57.838c-.019-.329-.057-.766-.057-1.094-.055-1.593-.561-1.985-1.906-2.219v-.032c1.514-.218,2.094-.64,2.094-2.578,0-1.5-.207-2.063-.748-2.516a3.158,3.158,0,0,0-2.092-.516H154.8v1.953h1.57v7.016H154.8v1.969h6.092V57.853h-1.606V55.369h2.056a1.7,1.7,0,0,1,1.158.25c.205.186.3.421.336,1.265.076,2,.224,2.406.505,2.64.224.188.5.3,1.289.3h2.692V57.838Zm-3.177-4.422c-.112.093-.3.125-.841.125h-2.634V50.822h2.634c.542,0,.729.047.841.125.168.156.224.406.224,1.25s-.057,1.078-.224,1.219" transform="translate(27.891 8.808)" fill="#eb9e21"/><path d="M168.63,50.838v7.016h-1.57v1.969H178.1v-3.86h-2.616v1.907h-3.943V55.135h3.12V53.291h-3.12V50.822h3.85v1.7h2.616V48.885H167.06v1.953Z" transform="translate(30.1 8.808)" fill="#eb9e21"/><path d="M189,48.852h-1.738c-.709,0-1.065.188-1.2.8l-1.887,7.75h-.224l-1.345-6.563H184.1V48.884H178.29v1.952h1.29l2.092,8.235c.168.609.486.8,1.214.8h2.13c.729,0,1.066-.2,1.2-.813l1.7-6.922h.186l1.72,6.922c.131.61.467.813,1.2.813h2.113c.728,0,1.046-.188,1.214-.8l2.092-8.235h1.29V48.884h-5.587v1.952h1.494L192.287,57.4h-.205l-1.888-7.75c-.13-.609-.485-.8-1.2-.8" transform="translate(32.124 8.802)" fill="#eb9e21"/><path d="M201.065,57.854V50.837h1.626V48.884H196.5v1.953h1.645v7.016H196.5v1.969h6.186V57.854Z" transform="translate(35.405 8.808)" fill="#eb9e21"/><path d="M213.474,55.947h-.186l-3.625-6.407a1.124,1.124,0,0,0-1.216-.656h-4.671v1.953h1.57v7.016h-1.57v1.969h5.811V57.853h-1.57V52.244h.186l3.943,6.922a1.1,1.1,0,0,0,1.216.656h2.784V50.837h1.533V48.884H211.96v1.953h1.514Z" transform="translate(36.715 8.808)" fill="#eb9e21"/><path d="M228.381,52.478c-.038-1.969-.224-2.578-.878-3.109a3.486,3.486,0,0,0-2.225-.485h-4.316a3.038,3.038,0,0,0-2.187.516c-.71.578-1.047,1.593-1.047,4.953,0,3.343.336,4.36,1.047,4.953a3.038,3.038,0,0,0,2.187.516h4.354a3.265,3.265,0,0,0,2.242-.548c.655-.546.935-1.358.935-3.875V53.916h-5.513v1.827H225.6v.313c0,1.079-.094,1.515-.224,1.625s-.317.14-.841.14h-2.6c-.579,0-.729-.031-.859-.14-.169-.14-.243-.656-.243-3.328,0-2.687.074-3.171.243-3.328.13-.093.28-.125.859-.125h2.5c.561,0,.71.047.823.125.13.125.186.36.223,1.453Z" transform="translate(39.23 8.808)" fill="#eb9e21"/><path d="M242.047,59.822a3.316,3.316,0,0,0,2.242-.5c.673-.546.841-1.437.878-3.578h-2.9c-.057,1.532-.093,1.782-.243,1.907-.112.093-.262.14-.8.14h-2.485c-.579,0-.728-.032-.859-.14-.15-.125-.243-.531-.243-3.3,0-2.782.093-3.171.243-3.313.131-.093.28-.124.859-.124h2.485c.523,0,.692.031.8.124.15.125.205.453.243,1.8h2.9c-.037-2.063-.224-2.937-.878-3.485a3.444,3.444,0,0,0-2.223-.469h-4.3a3.04,3.04,0,0,0-2.187.516c-.71.578-1.047,1.593-1.047,4.953,0,3.343.336,4.36,1.047,4.953a3.04,3.04,0,0,0,2.187.516Z" transform="translate(42.257 8.808)" fill="#eb9e21"/><path d="M256.006,49.4c-.448-.375-.934-.516-2.186-.516h-4.41a3.04,3.04,0,0,0-2.187.516c-.709.578-1.047,1.593-1.047,4.953,0,3.343.338,4.36,1.047,4.953a3.04,3.04,0,0,0,2.187.516h4.41c1.252,0,1.737-.14,2.186-.516.71-.594,1.047-1.61,1.047-4.953,0-3.36-.336-4.375-1.047-4.953m-2.3,8.251c-.112.109-.281.14-.841.14h-2.485c-.579,0-.728-.032-.859-.14-.15-.125-.243-.516-.243-3.3s.093-3.171.243-3.313c.131-.093.28-.124.859-.124h2.485c.561,0,.729.031.841.124.168.142.243.531.243,3.313,0,2.766-.076,3.172-.243,3.3" transform="translate(44.355 8.808)" fill="#eb9e21"/><rect width="22.694" height="3.221" transform="translate(140.398 61.551)" fill="#eb9e21"/><rect width="22.694" height="3.221" transform="translate(308.592 61.551)" fill="#eb9e21"/><path d="M112.725,29.161v-.087c3.544-.832,5.3-2.8,5.3-7.265a8.272,8.272,0,0,0-2.232-5.952c-1.183-1.183-2.976-1.75-5.822-1.75H90.8V44.742h19.214c2.67,0,4.683-.569,5.952-1.838a8.384,8.384,0,0,0,2.32-6.346c0-4.99-1.97-6.565-5.559-7.4m-12.517-8.272h6.127c.918,0,1.269.132,1.488.351a3.03,3.03,0,0,1,.568,2.188,3.7,3.7,0,0,1-.613,2.408c-.262.262-.569.307-1.443.307h-6.127Zm7.834,16.675c-.307.307-.745.4-1.576.4h-6.258V32.094h6.258a2.107,2.107,0,0,1,1.619.438c.351.349.569.831.569,2.582,0,1.794-.307,2.144-.613,2.45" transform="translate(16.359 2.542)" fill="#eb9e21"/><path d="M146.109,14.106H136.7V32.4c0,2.845-.219,3.634-.613,4.028-.35.349-1.05.482-2.539.482h-2.933c-1.488,0-2.188-.132-2.539-.482-.393-.394-.613-1.183-.613-4.028V14.106h-9.41V32.444c0,6.784.876,8.841,2.539,10.5,1.4,1.4,3.151,1.8,7.09,1.8h8.8c3.939,0,5.69-.394,7.09-1.8,1.663-1.663,2.539-3.72,2.539-10.5Z" transform="translate(21.271 2.542)" fill="#eb9e21"/><path d="M174.018,37.127c-.132-4.42-1.882-5.426-4.946-6.127v-.086c3.545-.7,5.253-2.408,5.253-8.1,0-4.245-.657-5.778-2.015-7.134-1.181-1.181-2.888-1.576-5.952-1.576H146.795V44.742h9.41v-10.5h4.6c1.926,0,2.32.175,2.758.569.482.437.744.875.831,3.151a59.093,59.093,0,0,0,.525,6.784H174.5c-.175-1.663-.394-4.639-.482-7.616m-10.285-9.847c-.263.263-.745.351-2.451.351H156.2V21.065h5.077c1.707,0,2.144.087,2.451.349.438.394.7,1.1.7,2.889s-.218,2.537-.7,2.975" transform="translate(26.449 2.542)" fill="#eb9e21"/><path d="M183.345,14.106c-3.195,0-4.858.568-6.04,1.75-1.794,1.75-3.326,5.121-3.326,13.567s1.532,11.816,3.326,13.567c1.183,1.181,2.845,1.751,6.04,1.751H193.5c2.845,0,4.859-.526,6.127-1.8,1.708-1.708,3.064-4.289,3.064-11.685v-3.72H187.108v6.345h6.565v.22c0,2.188-.614,3.02-.919,3.327-.262.262-.744.349-1.97.349h-4.158c-1.356,0-1.75-.087-2.012-.349-.394-.394-.963-1.839-.963-8.01s.569-7.527.963-7.921c.262-.263.656-.349,2.012-.349h3.939c1.312,0,1.707.13,1.926.349.306.306.875.656.918,3.107h9.017c-.131-5.208-1.05-7.44-2.582-8.929-1.183-1.137-3.02-1.574-6.3-1.574Z" transform="translate(31.347 2.542)" fill="#eb9e21"/><path d="M231.41,14.106H222v11.51H211.758V14.106h-9.41V44.742h9.41V32.88H222V44.742h9.41Z" transform="translate(36.458 2.542)" fill="#eb9e21"/><path d="M256.977,37.652H241.352V32.487h11.379V25.922H241.352V21.2h15.624V14.106H231.943V44.742h25.034Z" transform="translate(41.791 2.542)" fill="#eb9e21"/><path d="M284.457,37.127c-.132-4.42-1.882-5.426-4.946-6.127v-.086c3.545-.7,5.252-2.408,5.252-8.1,0-4.245-.656-5.778-2.013-7.134-1.181-1.181-2.888-1.576-5.952-1.576H257.234V44.742h9.41v-10.5h4.6c1.926,0,2.32.175,2.758.569.482.437.743.875.831,3.151a59.078,59.078,0,0,0,.525,6.784h9.585c-.176-1.663-.394-4.639-.482-7.616m-10.285-9.847c-.263.263-.744.351-2.451.351h-5.077V21.065h5.077c1.708,0,2.144.087,2.451.349.438.394.7,1.1.7,2.889s-.218,2.537-.7,2.975" transform="translate(46.347 2.542)" fill="#eb9e21"/><path d="M311.627,35.158c0-4.115-.744-6.04-1.925-7.222a6.316,6.316,0,0,0-4.115-1.663l-9.146-1.05c-1.488-.176-2.057-.263-2.275-.482-.263-.263-.394-.788-.394-1.75a2.855,2.855,0,0,1,.35-1.8c.175-.173.7-.218,1.75-.218h4.376c1.138,0,1.576.089,1.839.351s.394.787.482,2.713h8.621c-.044-5.3-.743-7.22-2.057-8.534-.963-.963-2.582-1.4-5.426-1.4H291.932c-2.319,0-3.807.569-4.727,1.488-1.4,1.4-2.363,3.851-2.363,7.747,0,4.245.787,6.084,1.97,7.265a6.517,6.517,0,0,0,4.158,1.663l9.059,1.05a5.349,5.349,0,0,1,2.275.525A2.684,2.684,0,0,1,302.7,35.6c0,1.093-.131,1.707-.394,1.969-.218.22-.962.307-2.232.307h-4.42c-1.27,0-1.8-.087-2.057-.351-.219-.218-.394-.832-.481-3.107h-8.622c0,5.384.612,7.616,1.882,8.884,1.094,1.1,2.67,1.445,5.426,1.445h12.648c2.451,0,3.9-.569,4.815-1.488,1.4-1.4,2.363-3.895,2.363-8.1" transform="translate(51.259 2.542)" fill="#eb9e21"/><path d="M152.308,54.212v-.03a2.127,2.127,0,0,0,1.906-2.438,2.784,2.784,0,0,0-.785-2.344,3.072,3.072,0,0,0-2.075-.516h-8.465v1.953h1.57v7.016h-1.57v1.969h8.465a3.21,3.21,0,0,0,2.111-.563c.543-.453.86-1.062.86-2.5,0-1.735-.617-2.3-2.018-2.548m-4.953-3.406h2.878c.448,0,.6.047.692.126.149.124.224.342.224,1.108,0,.781-.076,1.031-.224,1.172-.112.094-.281.11-.692.11h-2.878Zm3.682,6.954c-.131.11-.3.142-.729.142h-2.953V55.073h2.953c.448,0,.6.032.71.124.169.126.243.345.243,1.314,0,.952-.093,1.141-.224,1.25" transform="translate(25.745 8.808)" fill="#eb9e21"/><path d="M165.939,57.838c-.019-.329-.057-.766-.057-1.094-.055-1.593-.561-1.985-1.906-2.219v-.032c1.514-.218,2.094-.64,2.094-2.578,0-1.5-.207-2.063-.748-2.516a3.158,3.158,0,0,0-2.092-.516H154.8v1.953h1.57v7.016H154.8v1.969h6.092V57.853h-1.606V55.369h2.056a1.7,1.7,0,0,1,1.158.25c.205.186.3.421.336,1.265.076,2,.224,2.406.505,2.64.224.188.5.3,1.289.3h2.692V57.838Zm-3.177-4.422c-.112.093-.3.125-.841.125h-2.634V50.822h2.634c.542,0,.729.047.841.125.168.156.224.406.224,1.25s-.057,1.078-.224,1.219" transform="translate(27.891 8.808)" fill="#eb9e21"/><path d="M168.63,50.838v7.016h-1.57v1.969H178.1v-3.86h-2.616v1.907h-3.943V55.135h3.12V53.291h-3.12V50.822h3.85v1.7h2.616V48.885H167.06v1.953Z" transform="translate(30.1 8.808)" fill="#eb9e21"/><path d="M189,48.852h-1.738c-.709,0-1.065.188-1.2.8l-1.887,7.75h-.224l-1.345-6.563H184.1V48.884H178.29v1.952h1.29l2.092,8.235c.168.609.486.8,1.214.8h2.13c.729,0,1.066-.2,1.2-.813l1.7-6.922h.186l1.72,6.922c.131.61.467.813,1.2.813h2.113c.728,0,1.046-.188,1.214-.8l2.092-8.235h1.29V48.884h-5.587v1.952h1.494L192.287,57.4h-.205l-1.888-7.75c-.13-.609-.485-.8-1.2-.8" transform="translate(32.124 8.802)" fill="#eb9e21"/><path d="M201.065,57.854V50.837h1.626V48.884H196.5v1.953h1.645v7.016H196.5v1.969h6.186V57.854Z" transform="translate(35.405 8.808)" fill="#eb9e21"/><path d="M213.474,55.947h-.186l-3.625-6.407a1.124,1.124,0,0,0-1.216-.656h-4.671v1.953h1.57v7.016h-1.57v1.969h5.811V57.853h-1.57V52.244h.186l3.943,6.922a1.1,1.1,0,0,0,1.216.656h2.784V50.837h1.533V48.884H211.96v1.953h1.514Z" transform="translate(36.715 8.808)" fill="#eb9e21"/><path d="M228.381,52.478c-.038-1.969-.224-2.578-.878-3.109a3.486,3.486,0,0,0-2.225-.485h-4.316a3.038,3.038,0,0,0-2.187.516c-.71.578-1.047,1.593-1.047,4.953,0,3.343.336,4.36,1.047,4.953a3.038,3.038,0,0,0,2.187.516h4.354a3.265,3.265,0,0,0,2.242-.548c.655-.546.935-1.358.935-3.875V53.916h-5.513v1.827H225.6v.313c0,1.079-.094,1.515-.224,1.625s-.317.14-.841.14h-2.6c-.579,0-.729-.031-.859-.14-.169-.14-.243-.656-.243-3.328,0-2.687.074-3.171.243-3.328.13-.093.28-.125.859-.125h2.5c.561,0,.71.047.823.125.13.125.186.36.223,1.453Z" transform="translate(39.23 8.808)" fill="#eb9e21"/><path d="M242.047,59.822a3.316,3.316,0,0,0,2.242-.5c.673-.546.841-1.437.878-3.578h-2.9c-.057,1.532-.093,1.782-.243,1.907-.112.093-.262.14-.8.14h-2.485c-.579,0-.728-.032-.859-.14-.15-.125-.243-.531-.243-3.3,0-2.782.093-3.171.243-3.313.131-.093.28-.124.859-.124h2.485c.523,0,.692.031.8.124.15.125.205.453.243,1.8h2.9c-.037-2.063-.224-2.937-.878-3.485a3.444,3.444,0,0,0-2.223-.469h-4.3a3.04,3.04,0,0,0-2.187.516c-.71.578-1.047,1.593-1.047,4.953,0,3.343.336,4.36,1.047,4.953a3.04,3.04,0,0,0,2.187.516Z" transform="translate(42.257 8.808)" fill="#eb9e21"/><path d="M256.006,49.4c-.448-.375-.934-.516-2.186-.516h-4.41a3.04,3.04,0,0,0-2.187.516c-.709.578-1.047,1.593-1.047,4.953,0,3.343.338,4.36,1.047,4.953a3.04,3.04,0,0,0,2.187.516h4.41c1.252,0,1.737-.14,2.186-.516.71-.594,1.047-1.61,1.047-4.953,0-3.36-.336-4.375-1.047-4.953m-2.3,8.251c-.112.109-.281.14-.841.14h-2.485c-.579,0-.728-.032-.859-.14-.15-.125-.243-.516-.243-3.3s.093-3.171.243-3.313c.131-.093.28-.124.859-.124h2.485c.561,0,.729.031.841.124.168.142.243.531.243,3.313,0,2.766-.076,3.172-.243,3.3" transform="translate(44.355 8.808)" fill="#eb9e21"/></g></g></g></svg>