<svg xmlns="http://www.w3.org/2000/svg" xmlns:xlink="http://www.w3.org/1999/xlink" width="436.976" height="514.922" viewBox="0 0 436.976 514.922"><defs><clipPath id="a"><rect width="436.976" height="514.922" fill="#333131"/></clipPath></defs><g clip-path="url(#a)"><path d="M80.426,114.135c3.591-8.755,7.241-16.1,9.928-21.151l48.551,39.644c-4.458,5.881-8.656,11.815-12.488,17.658l-.849,1.291,13.918,10.753,3.032,2.277.974-1.508c1.194-1.855,2.392-3.674,3.589-5.418,3.052-4.484,6.195-8.845,9.351-12.972,3.588-4.753,7.446-9.524,11.793-14.583,2.106-2.435,4.014-4.562,5.688-6.39,1.536,1.678,3.288,3.617,5.184,5.8,4.019,4.635,8,9.524,11.831,14.518,4.149,5.458,7.865,10.666,11.342,15.9.69,1.043,1.383,2.1,2.068,3.172l.988,1.541,16.944-13.056-.851-1.3c-4.224-6.423-8.59-12.587-13-18.324l47.763-39.012a231.272,231.272,0,0,1,10.226,21.9l.825,2.043,18.194-14.036-.516-1.187a252.1,252.1,0,0,0-16.2-31.484L262.05,59.542,239.317,78.113c-27.082-41.4-54.709-68.047-57.81-70.991L173.917,0l-7.585,7.122C165.1,8.271,136.3,35.434,108.061,78.8L84.491,59.542,77.826,70.215a248.621,248.621,0,0,0-15.869,30.753l-.515,1.194,18.15,14ZM125.6,93.121A434.033,434.033,0,0,1,173.917,31.04a434.878,434.878,0,0,1,47.9,61.356l-27.467,22.43c-4.539-5.144-9.164-10.015-13.232-13.925l-7.195-6.768-7.226,6.763c-.239.222-5.721,5.34-13.781,14.531Z" transform="translate(45.051)" fill="#333131"/><path d="M432.471,200.17c-.984-4.674-3.231-9.29-19.178-14.283,9.439-19.043,7.292-23.971,5.992-26.953-14.935-34.278-39.069-65.012-69.787-88.878l-7.233-5.621L218.486,159.859,96.134,65.545,94.7,64.434l-7.229,5.621c-30.722,23.867-54.855,54.6-69.787,88.878-1.678,3.851-2.706,9.432,5.992,26.953C7.725,190.88,5.484,195.5,4.5,200.176A211.87,211.87,0,0,0,0,243.645C0,298.9,23.073,355.182,63.3,398.031c42.154,44.911,97.266,69.646,155.181,69.646s113.028-24.735,155.182-69.646c40.235-42.856,63.308-99.127,63.308-154.386a212.094,212.094,0,0,0-4.5-43.475m-46.139-12.547L378.9,200.548l14.954,3.3a131.938,131.938,0,0,1,16.774,4.791,191.123,191.123,0,0,1,3.238,35.009c0,48.765-18.845,95.955-53.065,132.877-33.55,36.2-79.928,60.455-130.767,68.419V179.43L342.053,93.086a206.946,206.946,0,0,1,54.982,72.309c-1.25,4.212-5.912,13.918-10.7,22.229M58.075,200.548,50.64,187.623c-4.791-8.318-9.451-18.024-10.7-22.229A206.973,206.973,0,0,1,94.919,93.086L206.934,179.43v265.51c-50.843-7.971-97.217-32.215-130.767-68.419C41.948,339.6,23.1,292.41,23.1,243.645a190.911,190.911,0,0,1,3.238-35.009,131.267,131.267,0,0,1,16.774-4.791Z" transform="translate(0 47.245)" fill="#333131"/><path d="M71.523,202.955c30.1,20.06,57.292,40.636,57.55,40.831l18.7,14.173v-97.35l-82.382-63.2-1.456,1.619a119.593,119.593,0,0,0-13.4,19.081c-5.909,10.451-12.424,26.092-9.926,41.237,2.827,17.149,13.226,31.817,30.914,43.606m53.15-31.68v41.275c-10.174-7.363-24.643-17.637-39.991-27.867-12.263-8.167-19.41-17.828-21.237-28.709-1.777-10.562,1.563-20.806,5.056-28.044Z" transform="translate(29.374 71.426)" fill="#333131"/><path d="M233.064,99.012l-1.44-1.6-82.382,63.2v97.35l18.716-14.178c.244-.191,27.437-20.766,57.536-40.826,17.688-11.789,28.087-26.458,30.914-43.606,2.5-15.145-4.018-30.786-9.926-41.237a120.524,120.524,0,0,0-13.417-19.1m-60.72,72.264,56.172-43.345c3.492,7.233,6.836,17.474,5.056,28.044-1.827,10.881-8.975,20.542-21.237,28.709-15.348,10.23-29.817,20.5-39.991,27.867Z" transform="translate(109.428 71.426)" fill="#333131"/><path d="M251.767,171.875c-.964.738-98.239,75.475-98.3,75.534L149.3,250.6v91.724l16.513-9.009c1.569-.861,38.573-21.078,48.511-28.324.48-.352,1.061-.743,1.723-1.194l.353-.241c13.187-8.944,53.311-36.159,53.311-123.36V158.122L251.77,171.875ZM171.421,305.639v-44.8l75.117-57.725c-5.65,57.791-32.593,76.07-42.871,83.048-1.054.712-1.966,1.338-2.7,1.874-4.922,3.589-19.682,12.051-29.543,17.6" transform="translate(109.475 115.94)" fill="#333131"/><path d="M86.269,303.707c.719.491,1.342.915,1.855,1.286,9.949,7.254,46.939,27.463,48.51,28.324l16.511,9.009V250.6L149,247.417c-.182-.144-96.662-74.274-98.318-75.541L32.735,158.122V180.2c0,87.2,40.123,114.416,53.534,123.509M55.912,203.118l75.12,57.727v44.8c-9.857-5.548-24.61-14-29.545-17.606-.742-.541-1.648-1.161-2.7-1.874-10.278-6.971-37.225-25.25-42.878-83.048" transform="translate(24.002 115.94)" fill="#333131"/></g></svg>