<svg xmlns="http://www.w3.org/2000/svg" xmlns:xlink="http://www.w3.org/1999/xlink" width="554" height="721.848" viewBox="0 0 554 721.848"><defs><clipPath id="a"><rect width="554" height="721.848" fill="none"/></clipPath></defs><g clip-path="url(#a)"><path d="M485.795,315.112l-.054-.48a9.112,9.112,0,0,0-.107-1.706c-.322-2.3-.587-4.591-.853-6.831-.427-3.685-.907-7.472-1.708-11.154-.373-1.44-.641-2.936-.96-4.43-.48-2.4-.96-4.908-1.655-7.309-1.226-4.162-2.881-8.273-4.428-12.275l-.907-2.293a2.43,2.43,0,0,0-1.711-1.494,6.684,6.684,0,0,0-1.492-.161c-4.43-.054-8.861-.375-13.182-.748l-2.188-.159c-4.484-.322-9.124-.536-13.552-.694-2.083-.054-4.216-.161-6.3-.266-1.226-.056-2.508-.107-3.734-.214-.855-.107-1.762-.161-2.615-.214-1.55-.159-3.149-.266-4.7-.373a3.462,3.462,0,0,0-1.07.161h-.1v.1a2.358,2.358,0,0,0-.107.8,40.71,40.71,0,0,1-.96,9.339c-.054.319-.054.587-.1.907a3.887,3.887,0,0,1-.056.8l-.214,1.387c-.212,1.494-.426,3.1-.744,4.642-.27,1.335-.641,2.722-.962,4.055-.214.8-.427,1.6-.585,2.4a50.707,50.707,0,0,1-2.883,8.91l-.641,1.443a49.194,49.194,0,0,0-1.92,4.589,19.035,19.035,0,0,1-4.165,6.829c-.427.482-.851.96-1.28,1.389-.641.641-1.226,1.28-1.815,1.974a5.578,5.578,0,0,1-1.655,1.175,3.825,3.825,0,0,0-1.438,1.121,1.8,1.8,0,0,1-1.121.587,2.606,2.606,0,0,1-1.974-1.44l-.214-.375.426-.909a5.342,5.342,0,0,1,.694-1.333,35.712,35.712,0,0,0,3.254-6.775c.587-1.5,1.177-2.99,1.708-4.484.375-1.014.746-2.028,1.175-3.095a71.689,71.689,0,0,0,4.694-18.143c.27-2.293.536-4.377.962-6.351a50.807,50.807,0,0,0,.692-8.8,5.852,5.852,0,0,0-.1-.96,15.257,15.257,0,0,0-7.206-.373c-.051.266-.1.48-.159.746-.054.641-.159,1.335-.214,1.974a22.846,22.846,0,0,1-.641,4.162c-.373,1.5-.639,3.044-.907,4.538a40.7,40.7,0,0,1-1.44,6.509c-.641,1.92-1.172,4-1.655,5.978-.266,1.065-.534,2.135-.8,3.149a73.752,73.752,0,0,1-3.95,10.245l-.317.587c-.27.694-.536,1.333-.855,2.028a24.621,24.621,0,0,1-3.041,5.871c-.482.639-.855,1.387-1.282,2.079l-.322.536c-2.881,4.857-3.307,5.388-7.362,8.963-1.172,1.016-2.829,2.081-4.908,1.175l-.429-.159-.051-.482c-.214-1.92-.268-2.773.958-4.216a12.608,12.608,0,0,0,1.813-2.988,18.264,18.264,0,0,1,1.5-2.561,19.958,19.958,0,0,0,1.762-3.361l1.228-2.4c.851-1.76,1.76-3.575,2.561-5.391,1.012-2.561,1.92-5.123,2.72-7.523.268-.8.534-1.6.8-2.347a56.432,56.432,0,0,0,2.135-7.2c.107-.429.159-.855.266-1.228.107-.748.268-1.5.427-2.188a103.876,103.876,0,0,0,2.615-12.914,60.558,60.558,0,0,0,.48-15.048,74.15,74.15,0,0,0-1.282-7.311c-.534-2.561-1.226-5.176-1.813-7.684l-.585-2.349c-.429-1.655-.855-3.363-1.389-5.015-.694-2.188-1.547-4.377-2.349-6.458-.853-2.188-1.76-4.482-2.454-6.777a42.045,42.045,0,0,0-1.762-4.267c-.319-.694-.585-1.335-.907-2.03-.212-.531-.427-1.067-.692-1.6a28.475,28.475,0,0,1-1.923-5.174,5.788,5.788,0,0,0-.531-1.335l-.163-.426c-.427-.962-.8-1.869-1.226-2.829a100.213,100.213,0,0,1-4.64-11.953c-.109-.212-.214-.426-.324-.641a5.527,5.527,0,0,1-.317-.585c-.375-.907-.8-1.815-1.228-2.776-1.014-2.24-2.081-4.642-2.988-7.043a54.66,54.66,0,0,0-2.832-6.512c-1.28-2.561-2.505-5.23-3.68-7.845-.587-1.387-1.228-2.773-1.869-4.162-1.28-2.773-2.668-5.5-4.055-8.218l-1.282-2.615a2.869,2.869,0,0,0-.427-.694c-.159-.266-.317-.48-.424-.692-.482-.8-.911-1.547-1.335-2.3-1.119-1.867-2.242-3.787-3.2-5.763a35.825,35.825,0,0,0-6.029-9.071c-.426-.429-.855-.907-1.226-1.335a9.53,9.53,0,0,0-2.883-2.615,17.749,17.749,0,0,0-7.525-2.135,134.068,134.068,0,0,0-22.252,1.228c-2.722.426-5.176.853-7.525,1.333-1.867.375-3.682.8-5.549,1.228a80.092,80.092,0,0,1-8.912,1.815l-.692.1a8.825,8.825,0,0,0-2.188.429,60.6,60.6,0,0,1-8.486,2.347c-1.119.268-2.3.48-3.414.8a3.252,3.252,0,0,1-.694.107,3.346,3.346,0,0,0-.855.212,24.96,24.96,0,0,1-6.136,1.655c-.478.107-.96.161-1.44.266a45.989,45.989,0,0,0-8.269,2.508l-1.389.59c-1.92.746-3.841,1.548-5.817,2.133a33.509,33.509,0,0,0-6.3,2.883c-.8.478-1.6.96-2.4,1.44-1.014.587-1.974,1.228-2.988,1.762a21.393,21.393,0,0,0-4.482,3.093c-.855.855-1.71,1.6-2.617,2.4-.641.641-1.333,1.279-2.025,1.92a5.123,5.123,0,0,0-.962,1.175c-2.51,3.789-4.589,7.2-6.351,10.46a163.584,163.584,0,0,0-7.1,15.636c-.907,2.081-1.655,4.214-2.508,6.4l-.426,1.228c-.59,1.6-1.228,3.309-1.655,4.964a27.353,27.353,0,0,1-2.4,5.549c-.373.8-.8,1.6-1.172,2.4a2.654,2.654,0,0,1-.7.853,1.885,1.885,0,0,0-.317.322l-.641.692-.59-.746a2.214,2.214,0,0,0-.317-.375,2.065,2.065,0,0,1-.748-1.226,7.442,7.442,0,0,1,.214-2.883,12.934,12.934,0,0,0,.585-3.254l.054-.534c.109-1.067.268-2.135.375-3.2.159-1.172.478-2.4.748-3.521.159-.534.266-1.067.371-1.6.748-3.149,1.655-6.244,2.561-9.178.27-.962.536-1.869.855-2.776.214-.641.373-1.282.587-1.92a80.16,80.16,0,0,1,4.162-10.087q1.28-2.639,2.4-5.283c.107-.212.268-.48.373-.692a1.121,1.121,0,0,0,.214-.322,28.012,28.012,0,0,1,2.4-3.894c.48-.641.909-1.282,1.335-1.974,2.454-3.9,5.708-6.831,9.073-9.767a10.892,10.892,0,0,1,1.813-1.119,12.528,12.528,0,0,0,1.387-.855,24.742,24.742,0,0,1,5.018-2.829c1.121-.531,2.242-1.014,3.307-1.652l.214-.107a22.091,22.091,0,0,0,5.228-1.923q1.681-.8,3.363-1.44l1.175-.427A52.381,52.381,0,0,1,260.6,126.2c1.335-.317,2.724-.639,4.109-1.012,3.738-1.121,7.418-2.51,11.049-3.9,1.545-.585,3.093-1.175,4.7-1.706a1.986,1.986,0,0,1,.371-.214c.056-.107.056-.214.107-.266a8.414,8.414,0,0,0,.214-1.228,28.372,28.372,0,0,0,.107-3.095c-.107-4.535-1.282-9.019-2.4-13.342a52.312,52.312,0,0,0-2.028-5.976c-.319-.855-.585-1.655-.907-2.454q-.723-2.16-1.44-4.323c-.641-1.708-1.228-3.468-1.813-5.23-.322-.853-.7-1.708-1.07-2.615-.373-.853-.748-1.76-1.067-2.668-.429-1.121-.746-2.242-1.121-3.361-.48-1.335-.907-2.668-1.387-3.95a18.288,18.288,0,0,0-1.282-2.773,5.809,5.809,0,0,0-.427-.8h-.319l-.427.587c-.48.694-.96,1.387-1.44,2.135-.534.907-1.121,1.813-1.655,2.668-.962,1.547-1.92,3.095-2.934,4.589a60.321,60.321,0,0,1-13.981,14.995c-.855.641-1.655,1.387-2.456,2.081-.853.8-1.815,1.6-2.773,2.349-.748.531-1.443,1.121-2.188,1.706a32.355,32.355,0,0,1-7.472,4.91,24.32,24.32,0,0,1-4.535,2.934,26.789,26.789,0,0,0-2.668,1.547,17.236,17.236,0,0,1-4.964,2.135A29.324,29.324,0,0,0,214.977,111c-.748.214-1.443.427-2.135.641-1.548.48-3.1.96-4.7,1.333a2.417,2.417,0,0,1-2.72-.746l-.534-.694.96-.641c.212-.161.373-.319.534-.427.531-.268,1.012-.587,1.494-.853.907-.534,1.813-1.067,2.668-1.6,1.813-1.175,3.629-2.508,5.337-3.789,1.867-1.387,3.843-2.829,5.871-4.109a7.916,7.916,0,0,0,.744-.641,6.926,6.926,0,0,1,.641-.587c1.282-1.065,2.561-2.028,3.789-3.041.214-.159.427-.266.641-.427a2.339,2.339,0,0,0,.692-.534c1.5-1.494,3.1-2.881,4.645-4.216a58.133,58.133,0,0,0,5.015-4.589c.907-1.014,1.869-1.974,2.881-2.934A35.141,35.141,0,0,0,246.78,76.2a8.265,8.265,0,0,1,.962-1.014,1.964,1.964,0,0,1,.373-.319l.478-.482c.322-.373.694-.746,1.014-1.119.907-1.121,1.762-2.3,2.668-3.417,1.711-2.242,3.47-4.589,5.337-6.724a14.4,14.4,0,0,0,2.561-5.763c.107-.427.268-.907.375-1.333a3.59,3.59,0,0,0-.322-2.242,28.048,28.048,0,0,0-3.736-6.19l-3.414-4.216a7.511,7.511,0,0,1-.746-1.065,11.663,11.663,0,0,0-1.655-1.923,40.548,40.548,0,0,1-3.149-2.881,20.352,20.352,0,0,0-5.871-4.642,2.929,2.929,0,0,1-.748-.587,1.151,1.151,0,0,1-.266-.214L239.2,31c-1.44-1.067-2.829-2.135-4.323-3.149-.641-.427-1.333-.8-2.081-1.228-.373-.212-.748-.424-1.121-.639l-.373-.214V19.212c-.054-3.524-1.815-6.4-3.9-9.553a.662.662,0,0,0-.161-.212L225.7,8.273c-1.333-1.067-2.72-2.135-4.109-3.095a20.814,20.814,0,0,0-6.777-2.615c-.907-.214-1.757-.429-2.613-.694a22.326,22.326,0,0,0-3.361-.641A19.334,19.334,0,0,1,204.354.214a2.537,2.537,0,0,0-.96-.1h-.48c-1.226-.054-2.4-.054-3.626-.107a14.973,14.973,0,0,0-5.871.692,6.679,6.679,0,0,1-2.242.322h-.268a83.963,83.963,0,0,0-14.247,1.6c-.429.054-.907.1-1.335.159l-.958.161c-.748.107-1.547.268-2.349.375a47.9,47.9,0,0,0-5.391,1.065c-2.4.641-4.75,1.389-7.1,2.081-2.242.748-4.482,1.44-6.777,2.081a71.724,71.724,0,0,0-10.779,4l-.587.212a46.736,46.736,0,0,1-5.549,2.349,37.143,37.143,0,0,0-6.3,2.881A20.931,20.931,0,0,0,127.674,19c-1.123.587-2.3,1.228-3.47,1.762l-.214.107a23.777,23.777,0,0,0-5.123,2.827c-.266.161-.531.319-.855.48a61.216,61.216,0,0,0-8.164,4.8l-.8.587c-2.776,2.028-5.656,4.055-8.378,6.19-1.652,1.228-3.307,2.615-4.855,3.948l-1.07.909c-.478.427-.851.853-1.28,1.28l-.478.48c-.27.319-.536.587-.855.909a18.931,18.931,0,0,1-1.762,1.813,18.284,18.284,0,0,0-2.988,3.575,27.429,27.429,0,0,1-1.655,2.4A33.181,33.181,0,0,0,80.5,60.3a24.159,24.159,0,0,0-1.44,10.725,10.055,10.055,0,0,0,1.282,4.642,16.726,16.726,0,0,1,.692,1.708,6.528,6.528,0,0,0,1.6,2.561l1.76,1.92.962,1.014-.056.375c-1.012,8.7-.641,17.4-.1,25.454l.054.424-.319.214a.91.91,0,0,1-.322.322,1.882,1.882,0,0,1-.585.531,62.556,62.556,0,0,0-11.047,8.646,19.909,19.909,0,0,1-2.564,2.081,22.614,22.614,0,0,0-4.107,4,1.871,1.871,0,0,0-.375.531,4.884,4.884,0,0,1-1.014,1.121,14.6,14.6,0,0,0-2.561,3.095c-.427.641-.907,1.335-1.387,1.974a21.833,21.833,0,0,0-2.081,3.2,23.4,23.4,0,0,0-2.51,8.539,16.848,16.848,0,0,0,.107,5.5,40.536,40.536,0,0,0,3.524,9.18c.427.746.907,1.492,1.333,2.24a18.065,18.065,0,0,1,2.135,4.162,4.1,4.1,0,0,0,.48.694l.212.212c.694.909,1.44,1.869,2.137,2.776,1.76,2.293,3.626,4.642,5.5,6.884.853,1.014,1.762,1.974,2.613,2.934,1.177,1.335,2.351,2.615,3.417,3.95a16.341,16.341,0,0,0,1.655,1.6l.322.319c.478.426,1.012.907,1.547,1.333.748.694,1.547,1.387,2.3,2.081.692.641,1.333,1.335,2.025,2.028.8.8,1.6,1.6,2.456,2.4a107.045,107.045,0,0,0,17.822,13.4,60.834,60.834,0,0,0,13.074,5.763,36.957,36.957,0,0,0,11.473,1.974c4.535-.107,8.912-.054,13.072.054,3.095.159,5.978-.694,9.073-1.547l1.282-.373a.965.965,0,0,0,.853-.8,5.29,5.29,0,0,0-1.655-2.508c-2.135-1.92-4.162-4.055-6.136-6.083l-.587-.587c-1.44-1.548-2.988-2.988-4.482-4.482l-4.109-3.95c-1.5-1.44-2.988-2.881-4.43-4.377-1.494-1.494-2.936-2.988-4.428-4.482-1.44-1.494-2.936-2.988-4.43-4.482a4.306,4.306,0,0,0-.748-.48c-.051-.054-.1-.054-.159-.107h-.054c-.214.107-.427.161-.531.212a12.608,12.608,0,0,0-3.417,2.99,11.222,11.222,0,0,1-1.655,1.867,30.382,30.382,0,0,0-6.829,8.858A4.885,4.885,0,0,1,109,194.885l-.429.212-1.652-1.121-.163-.694a1.867,1.867,0,0,1-.159-.746,15.308,15.308,0,0,1,.907-6.831c1.282-3.307,2.454-6.244,4.643-8.856l.322-.375a29.756,29.756,0,0,1,4.535-4.8,1.888,1.888,0,0,0-.8-.373.192.192,0,0,0-.159-.054l-.8.534c-.855.587-1.711,1.175-2.566,1.815a29.632,29.632,0,0,0-7.521,7.309,4.617,4.617,0,0,1-2.028,1.708,2.342,2.342,0,0,1-1.6,0c-.107,0-.212-.054-.319-.054l-.48-.054-.159-.478a4.767,4.767,0,0,1,.159-3.577c.159-.373.322-.746.48-1.121.212-.585.482-1.121.694-1.762a17.992,17.992,0,0,1,4.375-7.362c.587-.587,1.177-1.175,1.708-1.762a5.084,5.084,0,0,0,.587-.534,28.871,28.871,0,0,0-6.509,3.789,2.682,2.682,0,0,1-1.014.587,3.7,3.7,0,0,1-1.07.159l-1.014.161-.212-.639a1.784,1.784,0,0,0-.161-.322,2.265,2.265,0,0,1-.212-.855,4.185,4.185,0,0,1,.212-1.492c.641-1.494,1.228-3.041,1.92-4.484a10.119,10.119,0,0,1,2.883-3.256c.319-.266.585-.531.907-.8a5.4,5.4,0,0,0-1.333-2.561l-1.175-1.282a45.468,45.468,0,0,1-5.817-7.257,41.643,41.643,0,0,1-5.015-7.469c-.429-.8-.907-1.548-1.387-2.349a25.008,25.008,0,0,1-3.044-8.966,22.907,22.907,0,0,1-.107-5.015v-.373c.056-1.762,1.016-2.3,1.6-2.454l.692-.161.907,2.508c.587,1.6,1.177,3.149,1.762,4.7a9.761,9.761,0,0,0,.48,1.067,10.822,10.822,0,0,1,.694,1.6c.853,2.776,2.561,4.964,4.375,7.311l.643.8c.371.482.8.96,1.172,1.5.268.373.585.8.909,1.226a19.794,19.794,0,0,0,1.28,1.708c.534.641,1.065,1.333,1.655,1.974.478.587.958,1.121,1.44,1.762.427.48.8.96,1.228,1.494.534.692,1.067,1.387,1.6,2.028.48.534.907,1.014,1.389,1.494a37.354,37.354,0,0,1,3.841,4.75,19.055,19.055,0,0,0,1.974,2.188c.907.907,1.815,1.762,2.724,2.615.585.587,1.172,1.172,1.813,1.708.159.212.319.427.48.639.1.107.161.214.266.322.534.639,1.123,1.226,1.657,1.867.317.319.639.694.958,1.014l1.6,1.76c4.428,5.23,9.339,10.194,14.088,15l.373.373c3.044,3.1,6.246,6.139,9.285,9.071,1.5,1.443,2.99,2.829,4.482,4.27l1.389,1.335c2.083,2.028,4.162,4,6.19,6.029,1.657,1.655,3.363,3.256,5.069,4.857,1.228,1.121,2.4,2.24,3.631,3.361l1.6,1.6a50.727,50.727,0,0,0,7.684,6.617,12.239,12.239,0,0,1,2.083,1.762,8.274,8.274,0,0,1,.907,1.228c.161.266.319.531.585.907l1.445,2.135-2.4-.96c-.429-.161-.748-.266-1.014-.373a7.371,7.371,0,0,1-1.44-.641c-1.121-.694-2.242-1.335-3.417-2.028a95.41,95.41,0,0,1-8.646-5.6,6.529,6.529,0,0,0-.748-.534,4.256,4.256,0,0,0-3.361-.692c-.8.161-1.6.266-2.4.373-.585.107-1.226.212-1.815.266-.907.161-1.813.375-2.72.587-.907.268-1.813.482-2.72.748a35.957,35.957,0,0,1-7.633,1.6c-2.081.107-4.109.319-6.136.587a56.637,56.637,0,0,1-11.527.426,30.539,30.539,0,0,1-12.168-2.615l-1.494-.748a70.4,70.4,0,0,1-8.59-4.7c-1.5-.96-3.044-1.92-4.538-2.881-1.706-1.067-3.414-2.135-5.069-3.256-2.293-1.494-4.482-3.149-6.617-4.8l-.375-.214c-1.224-.962-2.454-1.974-3.626-2.988l-.322-.322c-.534-.427-1.067-.8-1.6-1.175a21.3,21.3,0,0,1-2.722-2.293,2.793,2.793,0,0,0-1.172-.748c-.161-.107-.319-.159-.482-.266l-.96.373c-1.012.373-1.974.748-2.934,1.121l-.746.319a13.627,13.627,0,0,0-4.91,2.829,3.9,3.9,0,0,1-1.014.694c-.159.107-.373.214-.534.319a27.281,27.281,0,0,0-6.3,5.763,15.34,15.34,0,0,0-3.2,7.737c-.212,1.92-.534,3.841-.8,5.656-.161.907-.319,1.762-.427,2.668-.056.373-.107.748-.159,1.067a14.989,14.989,0,0,0-.324,2.561c-.1,3.149-.159,6.351-.159,9.553a14.482,14.482,0,0,0,.427,3.2c.266.8.587,1.6.907,2.454.268.587.482,1.172.694,1.76a10.582,10.582,0,0,0,3.629,4.91l.748.587c.48.373.958.8,1.44,1.172.8.587,1.652,1.228,2.508,1.815a31.976,31.976,0,0,0,5.924,2.934c1.6.641,3.093,1.389,4.589,2.135.8.426,1.6.8,2.4,1.175,2.135,1.014,4.27,1.974,6.456,2.988,4.272,1.869,8.7,3.521,13.074,5.125l.855.319c3.948,1.44,7.416,2.668,10.725,3.682,2.454.8,5.071,1.44,7.525,2.081a22.6,22.6,0,0,0,2.454.48c.8.159,1.547.319,2.347.48,1.494.373,2.936.748,4.43,1.119.907.268,1.813.482,2.722.748l1.172.266c1.228.322,2.508.694,3.738.909,1.172.161,2.293.319,3.468.48,1.44.212,2.934.426,4.428.694a58.758,58.758,0,0,0,11.313.8,194.674,194.674,0,0,0,20.439-1.333,56.448,56.448,0,0,0,14.622-3.629,12.009,12.009,0,0,0,1.121-.587l.159-.107a8.01,8.01,0,0,0-.159-3.9,32.227,32.227,0,0,1-.962-13.5c.482-2.99.907-5.924,1.389-8.861a14.018,14.018,0,0,1,3.841-7.47,2.489,2.489,0,0,1,.962-.534.319.319,0,0,0,.212-.054l.639-.319.7,1.28a2.471,2.471,0,0,1,.159,1.014,91.817,91.817,0,0,0,1.547,17.076,54.623,54.623,0,0,0,2.4,9.073c1.172,3.521,2.776,5.71,5.067,7.1a4.945,4.945,0,0,1,.536.426.422.422,0,0,0,.212.214,25.512,25.512,0,0,0,6.672,3.843,37.741,37.741,0,0,0,10.138,2.776,39,39,0,0,0,11.1-.107,30.006,30.006,0,0,0,4.27-1.175c.907-.266,1.813-.534,2.773-.8,3.577-.907,6.351-3.095,9.285-5.442.8-.641,1.6-1.282,2.454-1.869a2.722,2.722,0,0,0,.48-.585,5.924,5.924,0,0,1,.534-.641c.641-.694,1.282-1.387,1.976-2.028l1.175-1.228a4.388,4.388,0,0,1,.48-.534,9.5,9.5,0,0,0,1.014-1.067c1.762-2.561,3.309-4.908,4.694-7.15.429-.641.8-1.387,1.177-2.081.266-.48.478-.96.744-1.387,1.121-2.028,2.244-4,3.417-5.978l.7-1.228c.8-1.44,1.65-2.881,2.559-4.267a15.412,15.412,0,0,0,2.081-4.43,28.989,28.989,0,0,1,2.347-5.71,40.344,40.344,0,0,0,3.1-6.67c.962-2.988,1.815-6.136,2.617-9.124.373-1.389.746-2.776,1.172-4.165a12.331,12.331,0,0,1,.641-1.972,19.445,19.445,0,0,0,1.282-5.391l.159-1.815a39.763,39.763,0,0,1,1.121-7.791,1.133,1.133,0,0,0,.056-.48v-.214c.266-4.535.531-9.017.8-13.555.051-.319.107-.639.159-1.014l.214-1.385.853.266a1.035,1.035,0,0,0,.373.054,1.737,1.737,0,0,1,.962.426A18.594,18.594,0,0,1,292.99,184a27.567,27.567,0,0,1,2.724,11.795,40.6,40.6,0,0,1-.694,7.63,1.8,1.8,0,0,0,.266,1.6,4.082,4.082,0,0,0,2.191-.319,35.067,35.067,0,0,0,9.5-6.724,17.928,17.928,0,0,0,1.867-2.135l.641-.855c.268-.319.48-.641.748-.96a14.617,14.617,0,0,1,1.387-1.813,27.3,27.3,0,0,0,4.857-6.085l.107-.159a2.162,2.162,0,0,1,.534-.748,10.672,10.672,0,0,0,.96-1.121,8.059,8.059,0,0,1,2.508-2.293l.96-.534.212,1.065a21.143,21.143,0,0,1,.163,5.766,14.838,14.838,0,0,1-.8,4.482,36.516,36.516,0,0,1-5.766,9.073l-.96,1.172a55.98,55.98,0,0,1-7.257,5.817c-.161.107-.375.266-.534.373a1.9,1.9,0,0,0,.962,0,15,15,0,0,1,4.16-1.067,14.143,14.143,0,0,0,2.081-.373,24.922,24.922,0,0,0,3.9-1.228c.958-.373,1.92-.8,2.827-1.226l1.813-.855.375.59a1.055,1.055,0,0,1,.319.692,2.545,2.545,0,0,1-.1.855c-1.07,3.468-3.575,5.654-6.085,7.791l-.748.639c-3.626,1.869-7.95,4.055-12.965,3.629a4.5,4.5,0,0,0-1.175-.051,5.775,5.775,0,0,0-.907.319l-.056.051c-.317.855,0,1.55.427,2.561l.27.536q.556,1.44,1.279,2.881a59.9,59.9,0,0,1,2.3,5.656,11.31,11.31,0,0,0,.427,1.28l1.172,2.724c.641,1.492,1.282,2.934,1.92,4.428.534,1.333,1.123,2.722,1.657,4.055.639,1.6,1.28,3.149,1.92,4.75.587,1.443,1.333,2.881,2.028,4.27a50.776,50.776,0,0,1,2.827,6.512,63.379,63.379,0,0,0,2.51,5.868c.585,1.28,1.226,2.508,1.76,3.789,1.494,3.682,3.256,7.365,4.91,10.886l.534,1.065a25.021,25.021,0,0,1,1.813,4.43c1.228,4.216,2.883,8.325,4.482,12.329l.59,1.333a16.118,16.118,0,0,1,.641,1.655c.48,1.228.958,2.505,1.438,3.789.268.746.59,1.547.855,2.293.692,1.815,1.385,3.682,1.974,5.6.534,1.762.907,3.629,1.28,5.388.214.909.427,1.869.641,2.776.426,1.708.855,3.363,1.282,5.018a10.456,10.456,0,0,1,.054,5.868c-1.014,3.2-1.655,6.565-2.349,9.767-.266,1.44-.534,2.827-.855,4.216-.585,2.72-1.012,5.5-1.333,8.218-.317,2.561-.853,5.123-1.333,7.577-.319,1.44-.641,2.936-.907,4.377-.266,1.545-.48,3.093-.746,4.642l-.429,2.508c.054.054.1.107.161.107a25.588,25.588,0,0,0,10.993-1.282,50.723,50.723,0,0,0,6.083-2.827,109.14,109.14,0,0,0,11.473-7.2,59.213,59.213,0,0,0,8.218-6.777,10.036,10.036,0,0,0,.694-.8,6.533,6.533,0,0,1,3.522-2.4h.159l.161.051a1.833,1.833,0,0,1,1.548,2.03,3.986,3.986,0,0,1-.531,1.655,20.443,20.443,0,0,1-1.07,1.813,26.06,26.06,0,0,0-1.655,2.881,12.513,12.513,0,0,1-2.454,3.47c-1.974,1.92-4.16,4.109-6.456,6.083a70.443,70.443,0,0,1-7.365,5.391l-1.282.853a36.488,36.488,0,0,1-7.15,3.894c-1.175.429-2.561.855-4.109,1.282-.587.161-1.172.373-1.762.534a19.206,19.206,0,0,1-6.67,1.175c1.655.534,2.934.907,4.165,1.226a6.993,6.993,0,0,0,2.079.322,34.855,34.855,0,0,0,14.142-2.242c.909-.319,1.815-.694,2.668-1.014,1.335-.48,2.669-.96,3.948-1.547a1.993,1.993,0,0,1,2.561.266l.48.482-.373.531a3.832,3.832,0,0,0-.373.587,11.469,11.469,0,0,1-.96,1.282,47.14,47.14,0,0,1-7.525,6.351,17.7,17.7,0,0,1-8.8,3.309c-6.616.639-12.594.96-18.57-1.389l-.054.054a8.474,8.474,0,0,0-.641,2.934l-.212,1.762c-.214,1.762-.373,3.468-.641,5.176-.322,1.708-.639,3.468-.962,5.176-.212.8-.373,1.655-.532,2.508l-.589,3.309c-.424,2.293-.851,4.643-1.333,6.884q-.479,2.161-.96,4.321a77.339,77.339,0,0,0-1.76,8.644c-.054.536-.163,1.121-.214,1.708-.159,1.014-.322,2.081-.427,3.1-.161,2.934-.322,6.029-.373,9.178,0,1.813.907,3.041,2.773,3.894a10.248,10.248,0,0,0,4.43.853h.266c1.92-.054,3.9-.1,5.871-.159l2.934-.107a30.969,30.969,0,0,0,8.7-1.44,13.561,13.561,0,0,1,2.4-.48c3.736-.322,7.311-1.869,10.728-3.309a77.873,77.873,0,0,0,10.031-5.23c.746-.48,1.494-.96,2.188-1.387a33.855,33.855,0,0,1,4.428-2.668,5.785,5.785,0,0,0,.909-.746c.159-.161.317-.268.48-.429.373-.319.744-.639,1.119-1.014.855-.692,1.708-1.494,2.617-2.133a38.945,38.945,0,0,0,4.589-4.111c.424-.427.958-.853,1.492-1.333a10.967,10.967,0,0,0,1.925-1.923c1.119-1.548,2.454-2.988,3.678-4.375,1.175-1.335,2.4-2.669,3.47-4.109,2.081-2.827,4.377-5.6,6.565-8.271.8-.962,1.655-1.976,2.454-2.936a26.942,26.942,0,0,0,2.561-3.575c.641-1.067,1.333-2.081,2.028-3.041l.641-.853c1.172-1.6,2.347-1.494,3.95-.8l.478.214v.534c0,.107.054.266.054.427a12.008,12.008,0,0,1-.054,1.333,21.6,21.6,0,0,1-2.561,6.3c-1.175,2.188-2.454,4.377-3.736,6.512-.534.853-1.065,1.76-1.6,2.668l-.482.8c-.373.641-.746,1.282-1.065,1.92-.641,1.121-1.335,2.188-2.03,3.2a36.34,36.34,0,0,0-2.242,3.575,7.31,7.31,0,0,1-1.228,1.6c-.159.161-.371.375-.534.534-.159.214-.373.426-.585.694a7,7,0,0,0-1.014,1.172,46.025,46.025,0,0,1-5.978,6.458l-.159.161a2.392,2.392,0,0,0-.48.534.929.929,0,0,0,.322.054c2.505.319,4.747.585,7.043.748,1.065.107,2.081.107,3.146.159.855,0,1.655.054,2.51.107,5.337.266,10.672.587,16.06.907l3.789.212c1.44.056,2.883.161,4.377.268l13.235.853c.8.056,1.547.056,2.293.163,2.881.371,5.015-1.123,7.365-2.724l.373-.266a53.524,53.524,0,0,1,3.309-4.27,59.324,59.324,0,0,0,3.789-5.015c.585-.909,1.226-1.869,1.813-2.776a68.853,68.853,0,0,0,4.375-7.15c.534-1.067,1.175-2.135,1.762-3.2a49.863,49.863,0,0,0,3.47-7.2,31.134,31.134,0,0,1,1.76-4.055A49.881,49.881,0,0,0,475.5,391.1l.161-.48c.1-.48.266-1.014.424-1.5a155.157,155.157,0,0,0,4.537-15.1l.105-.375c.373-1.494.8-3.1,1.07-4.587.424-2.083.748-4.057.958-5.978.163-1.389.429-2.776.7-4.162a40.1,40.1,0,0,0,.851-5.176c.107-1.976.375-3.9.641-5.817.161-.96.27-1.867.429-2.829l.107-1.067q.238-1.6.319-3.2c.266-9.126.266-17.556,0-25.722M149.6,252.942a27.472,27.472,0,0,1-.96,3.631c-.107.534-.266,1.067-.429,1.6l-.159.536-.534.051H147.2a2.526,2.526,0,0,1-2.242-1.76,11.357,11.357,0,0,1-.907-2.561c-1.121-4.857-1.014-8.751.319-12.326a19.824,19.824,0,0,1,6.136-8.539,4.743,4.743,0,0,1,4.162-1.067l.59.107.051.587a8.091,8.091,0,0,1-.534,4.162l-.96,2.081a57.1,57.1,0,0,0-4.216,13.5m16.116-15.794-.96,3.682c-.534,1.655-1.065,3.363-1.706,4.964a32.06,32.06,0,0,0-2.028,10.4c-.056,2.4-.056,4.75,0,7.152v3.841a11.014,11.014,0,0,1-.109,1.869,1.862,1.862,0,0,1-.639,1.014c-.056.054-.163.161-.268.268l-.48.585-.641-.48c-.159-.1-.322-.212-.48-.319a3.861,3.861,0,0,1-1.067-1.014l-.319-.587a20.593,20.593,0,0,1-1.974-3.9,33.911,33.911,0,0,1-1.228-14.941,18.144,18.144,0,0,1,4.643-10.245c1.333-1.494,2.722-2.934,4.162-4.377a2.855,2.855,0,0,1,2.934-.746l.8.212Zm65.423-153.1a9.024,9.024,0,0,1-3.841,3.894l-.534.268-.429-.427a2.221,2.221,0,0,0-.319-.375,5.23,5.23,0,0,1-.855-.96q-1.119-1.839-2.24-3.682c-1.228-2.028-2.456-4-3.736-5.976-1.175-1.869-2.508-3.682-3.736-5.442-.641-.909-1.333-1.815-1.974-2.722a3.617,3.617,0,0,1-.322-.641l-.373-.694.27-.427a10.706,10.706,0,0,1,3.734-3.256l.534-.319.48.427a1.2,1.2,0,0,0,.266.214,2.272,2.272,0,0,1,.587.641,22.9,22.9,0,0,0,3.629,5.228,15.8,15.8,0,0,1,1.333,1.815,10.967,10.967,0,0,0,.7,1.014c.319.426.636.8.958,1.175.268.373.534.692.8,1.067a48.79,48.79,0,0,1,5.071,8.432l.161.373Zm-6.083-28.016a4.676,4.676,0,0,0,.907-.853l1.652-1.869c3.417-3.948,6.94-8.059,9.236-12.914a1.877,1.877,0,0,1,.424-.641l.212-.268.482-.212a1.823,1.823,0,0,1,1.067.319,1.611,1.611,0,0,1,.534,1.121,11.072,11.072,0,0,1-.694,4.857,42.145,42.145,0,0,1-7.63,12.38,19.576,19.576,0,0,0-2.135,3.2l-.266.48a1.472,1.472,0,0,0,.051.375c1.228.212,2.3-.268,3.631-1.177a14.661,14.661,0,0,0,1.757-1.492,4.181,4.181,0,0,1,.7-.694c.159-.161.322-.375.48-.534a8.709,8.709,0,0,1,1.279-1.121,9.754,9.754,0,0,0,3.044-3.575c.427-.746.907-1.44,1.333-2.135A22.464,22.464,0,0,0,244,45.52a2.672,2.672,0,0,1,.587-.8l.214-.266.478-.107a1.577,1.577,0,0,1,1.284.429,1.636,1.636,0,0,1,.427,1.333l-.056.534a16.068,16.068,0,0,1-.585,3.575,31.49,31.49,0,0,1-5.5,9.711c-1.335,1.6-2.564,3.2-4,5.176a5.893,5.893,0,0,0-.322.8c-.054.054-.054.054-.054.107.1.107.212.107.427.051a8.686,8.686,0,0,0,3.575-1.545,27.945,27.945,0,0,1,4.377-2.883,1.839,1.839,0,0,0,.853-.587c.319-.427.694-.907,1.014-1.333a32.452,32.452,0,0,0,3.149-4.642l1.76-3.47.748.427a5.3,5.3,0,0,1,2.51,3.2,5.773,5.773,0,0,1,.371.853l.214.373-.214.322a31.953,31.953,0,0,1-4.375,6.241l-.692.855c-.59.641-1.121,1.28-1.655,1.974a31.517,31.517,0,0,1-4.591,5.283,8.432,8.432,0,0,0-1.065,1.28,10.054,10.054,0,0,0-.694.855l-.587.641a30.151,30.151,0,0,1-2.191,2.293,20.969,20.969,0,0,1-1.972,1.762l-1.121.907h-.268c-.585,0-1.065-.694-1.065-.694a88.211,88.211,0,0,0-6.246-8.271,70.088,70.088,0,0,1-6.936-9.285l-.214-.373.163-.375a9.712,9.712,0,0,1,2.561-3.254,6.913,6.913,0,0,1,.746-.587m-33.35-34.527a1.443,1.443,0,0,1,1.545-1.6h.48c4.91-.107,9.982-.266,14.995.855.746.159,1.548.319,2.349.48,1.333.319,2.668.587,4.055.907a35.533,35.533,0,0,1,7.525,3.363l1.012.531.107.163a3.406,3.406,0,0,1-.051,3.68c-.268.429-.482.855-.7,1.282a9.263,9.263,0,0,1-2.025,2.988,7.112,7.112,0,0,0-1.279,1.655,23.168,23.168,0,0,1-4.113,4.962c-.424.48-.907.96-1.384,1.443a65.724,65.724,0,0,1-5.659,5.281l-.96.855a44.413,44.413,0,0,1-5.817,4.535,19.116,19.116,0,0,0-1.655,1.228c-.585.48-1.172.907-1.757,1.333-.962.587-1.923,1.121-2.883,1.708a32.92,32.92,0,0,0-2.988,1.76A107,107,0,0,1,180.5,65.532c-1.815.853-3.577,1.813-5.337,2.72-.8.429-1.6.907-2.456,1.335-.317.161-.587.266-.853.373l-3.039,1.228c-3.472,1.333-6.94,2.722-10.408,4.055-.585.214-1.226.373-1.813.534l-.427.1a48.638,48.638,0,0,0-8.486,2.936,5.477,5.477,0,0,1-1.228.427c-1.387.322-2.773.694-4.107,1.067a53.817,53.817,0,0,1-7.313,1.6,22.738,22.738,0,0,0-2.508.48,21.054,21.054,0,0,1-2.776.587q-1.842.241-3.682.48a89.888,89.888,0,0,1-11.42,1.014h-1.065l-.268-.054a51.678,51.678,0,0,1-9.5-.8,10.741,10.741,0,0,0-1.282-.1,20.723,20.723,0,0,1-8.11-2.3l-.266-.107-.107-.319A7.518,7.518,0,0,1,94,76.2a41.528,41.528,0,0,1,4.857-11.313,12.993,12.993,0,0,1,1.443-1.92c.694-.855,1.389-1.655,2.081-2.51.748-.907,1.547-1.867,2.293-2.773a3.137,3.137,0,0,1,2.4-1.547l.427-.054.266.319a3.026,3.026,0,0,1,.482,2.349,1.91,1.91,0,0,0-.056.587,12.113,12.113,0,0,0,.59,4.267,7.082,7.082,0,0,0,6.188,4.8,26.2,26.2,0,0,0,10.623-.587,25.6,25.6,0,0,1,3.3-.692,18.293,18.293,0,0,0,1.818-.322c.639-.107,1.28-.268,1.972-.427.641-.159,1.23-.322,1.869-.427a4.514,4.514,0,0,0,3.256-3.041c.051-.268.159-.482.212-.748a4.05,4.05,0,0,1,1.547-2.561l.319-.107c1.228-.212,2.459-.373,3.682-.587,2.778-.427,5.6-.853,8.432-1.44,2.668-.585,5.444-.96,8.11-1.333,2.135-.322,4.323-.641,6.458-1.014,1.282-.214,2.561-.534,3.843-.8l2.454-.534a5.776,5.776,0,0,1,1.335-.212,37.443,37.443,0,0,0,8-1.655l.429-.107a18.694,18.694,0,0,0,9.5-6.136l.214-.268a3.413,3.413,0,0,1,.853-.907c1.762-1.333,2.615-3.256,3.468-5.337a19.805,19.805,0,0,0,1.282-8.7,8.754,8.754,0,0,0-3.9-6.936c-.48-.322-.96-.641-1.438-1.016l-.907-.639Zm-4.165,4.323c3.2.534,4.964,2.561,4.964,5.71a16.325,16.325,0,0,1-.59,4.8,8.869,8.869,0,0,1-2.24,4,9.748,9.748,0,0,0-1.014,1.067,13.247,13.247,0,0,1-1.172,1.228,13.884,13.884,0,0,1-5.02,3.256l-1.28.478a48.326,48.326,0,0,1-4.964,1.494l-.371.107c-3.363.694-6.831,1.443-10.245,1.976-1.443.266-2.883.531-4.323.853-1.762.373-3.631.748-5.5,1.014-2.028.319-4.162.748-6.19,1.175-2.081.48-4.216.907-6.348,1.228h-.322a3.148,3.148,0,0,1-.748-.056.7.7,0,0,1-.319-.051h-.534l-.214-.8a1.111,1.111,0,0,1-.051-.746c.266-.748.534-1.547.853-2.3a47.781,47.781,0,0,1,2.186-5.551,58.413,58.413,0,0,1,3.044-5.335c.424-.694.853-1.387,1.228-2.028l.266-.268,2.081-1.226c1.44-.909,2.827-1.708,4.162-2.456a5.431,5.431,0,0,1,1.226-.587l5.071-2.24A62.153,62.153,0,0,1,174.847,26.1a35.137,35.137,0,0,1,12.7-.268M89.3,75.724v.641l-.641.107a1.463,1.463,0,0,1-.48.054,2.25,2.25,0,0,1-2.028-1.335,14.974,14.974,0,0,1-1.867-6.777,11.337,11.337,0,0,1,.319-2.668,30.337,30.337,0,0,1,5.549-11.581,52.221,52.221,0,0,1,4.7-5.5l.375-.427c.531-.534.96-1.067,1.438-1.6.375-.375.7-.746,1.07-1.175A9.559,9.559,0,0,1,98.8,44.452c1.92-1.708,3.841-3.414,5.817-5.069a6.074,6.074,0,0,1,1.119-.8l.375-.212c.319-.266.694-.48,1.067-.748a16.065,16.065,0,0,0,2.081-1.44,31.209,31.209,0,0,1,6.992-4.75c.958-.48,1.867-1.014,2.72-1.547a32.408,32.408,0,0,1,2.936-1.708l2.4-1.28c1.177-.692,2.4-1.333,3.631-1.92,2.028-.962,4.055-1.974,5.978-3.041.8-.375,1.6-.8,2.347-1.23.107-.051.159-.1.214-.1a1.7,1.7,0,0,1,.692-.427,32.541,32.541,0,0,0,5.388-2.03c.7-.317,1.44-.639,2.188-.958A82.552,82.552,0,0,1,155.529,13.4c2.133-.587,4.267-1.282,6.3-1.974,1.6-.48,3.2-1.016,4.8-1.494,1.655-.48,3.363-.909,5.018-1.335.748-.159,1.44-.319,2.133-.534a6.955,6.955,0,0,1,3.631-.107l.212.107a5.292,5.292,0,0,1,2.4,3.363,3.79,3.79,0,0,1-.746,3.521l-.48.268a2.334,2.334,0,0,1-.909.371c-1.119.214-2.186.429-3.307.643-2.028.427-4.111.8-6.136,1.28-1.92.48-3.841,1.067-5.766,1.655-.851.268-1.706.534-2.613.8-1.175.322-2.347.694-3.575,1.016a87.377,87.377,0,0,0-12.86,4.908,18.771,18.771,0,0,1-2.242.853,46.935,46.935,0,0,0-7.791,3.629c-.694.375-1.333.748-2.03,1.121l-1.6.8c-.96.531-1.92,1.014-2.883,1.547q-2.961,1.839-5.922,3.682l-1.547.958c-.056.054-.107.107-.214.214a1.739,1.739,0,0,1-.855.587,14.713,14.713,0,0,0-4.64,2.881c-.587.482-1.121.909-1.708,1.335a65.556,65.556,0,0,0-5.5,4.428c-2.883,2.722-5.071,4.857-6.992,7.045a38.353,38.353,0,0,0-6.244,8.593c-1.76,3.629-3.787,7.737-4.162,12.166m44.879,52.188H132a74.573,74.573,0,0,1-20.12-2.881,53.843,53.843,0,0,1-5.123-1.867l-2.081-.8c-.266-.107-.48-.214-.746-.322a4.579,4.579,0,0,0-.748-.373,26.226,26.226,0,0,1-6.029-2.883l-1.014-.534a9.236,9.236,0,0,1-4.428-6.136,42.759,42.759,0,0,1-1.07-5.71l-.159-.907a61.363,61.363,0,0,1-.534-9.392c-.054-2.03-.054-4.162-.214-6.244a6.078,6.078,0,0,1,.107-2.188,2.052,2.052,0,0,1,.534-1.014l.214-.214.373-.531.585.266a42.542,42.542,0,0,0,15.477,3.629,123.136,123.136,0,0,0,17.5-.427,83.944,83.944,0,0,0,12.166-1.976c.855-.159,1.711-.373,2.564-.534a69.42,69.42,0,0,0,6.775-1.652c1.818-.587,3.685-1.067,5.5-1.547a51.59,51.59,0,0,0,8.057-2.4c1.282-.585,2.668-1.121,4-1.655a58.6,58.6,0,0,0,8.378-3.787,8.481,8.481,0,0,1,2.028-.909,28.875,28.875,0,0,0,6.619-2.881q1.36-.8,2.72-1.44l1.548-.748c1.121-.534,2.242-1.065,3.309-1.6,2.561-1.387,5.123-2.934,7.577-4.482l1.172-.748c2.083-1.226,4.165-2.561,6.192-3.948a4.556,4.556,0,0,1,4.267-.587l.214.107.161.161a6.152,6.152,0,0,1,.587.853c.748,1.762.534,2.827-.907,3.95-1.976,1.492-3.948,2.986-5.978,4.428a33.85,33.85,0,0,1-4.7,2.881A37.924,37.924,0,0,0,192.99,73c-.536.317-1.07.639-1.6.96l-.746.478a23.17,23.17,0,0,1-3.629,1.869,5.927,5.927,0,0,0-1.813.96,66.582,66.582,0,0,1-9.339,5.123l-1.494.748a53.053,53.053,0,0,1-5.337,2.133c-1.443.482-2.829,1.07-4.216,1.6-.641.268-1.228.534-1.815.748l-1.92.8c-1.387.587-2.776,1.119-4.165,1.652a32.431,32.431,0,0,1-3.892,1.175c-.96.266-1.923.48-2.881.694a46.948,46.948,0,0,0-5.551,1.494,42.023,42.023,0,0,1-6.992,1.708c-.909.159-1.867.319-2.773.534a91.032,91.032,0,0,1-15.638,1.652,19.133,19.133,0,0,0-2.508.161.837.837,0,0,0-.694.373l.962.641a32.545,32.545,0,0,0,7.577.855,77.234,77.234,0,0,0,13.769-.8l1.547-.212c2.776-.429,5.656-.909,8.432-1.548a148.306,148.306,0,0,0,18.143-5.286c3.787-1.44,7.577-2.934,11.366-4.428.478-.214.907-.426,1.389-.694.424-.212.907-.478,1.384-.692a4.563,4.563,0,0,1,4.323-.054l.214.161.107.212a5.6,5.6,0,0,1,.1,4.162l-.161.266c-1.6,2.083-3.841,3.044-5.973,4l-.27.107c-1.76.8-3.575,1.547-5.335,2.242-1.387.531-2.776,1.065-4.111,1.652-1.384.587-2.827,1.067-4.16,1.547a37.645,37.645,0,0,0-4.857,1.815,12.047,12.047,0,0,1-2.613.8,37.579,37.579,0,0,0-5.926,1.655l-.8.268c-.958.319-1.92.746-2.934,1.172a5.275,5.275,0,0,0-.534.214l.107.159h2.505a43.081,43.081,0,0,0,10.783-.692l1.119-.268c2.988-.692,6.031-1.387,8.963-2.347,4.27-1.335,8.113-2.722,11.634-4.216a21.468,21.468,0,0,0,3.041-1.76l.59-.322a7.494,7.494,0,0,1,5.44-1.121l.8.161c.744.161,1.492.266,2.24.373a3.842,3.842,0,0,1,2.72,1.6c.962,1.333,2.3,3.254,1.925,5.6a23.341,23.341,0,0,1-1.389,4.8,4.061,4.061,0,0,1-1.708,1.815l-1.655.96a62.794,62.794,0,0,1-9.231,4.747c-1.762.694-3.575,1.44-5.283,2.188l-1.762.8a63.96,63.96,0,0,1-8.912,3.2c-1.974.585-3.946,1.172-5.922,1.813-1.28.373-2.561.8-3.843,1.175-.692.214-1.438.373-2.186.534-.375.1-.748.159-1.175.266a93.512,93.512,0,0,1-22.252,2.508m67.4,17.558c-.322.639-.587,1.333-.855,2.028l-.373.853c-.48,1.335-1.014,2.615-1.44,3.95-.373,1.119-.694,2.24-1.014,3.361-.214.587-.373,1.226-.587,1.867l-.161.694a44.165,44.165,0,0,1-1.706,4.857,20.1,20.1,0,0,0-1.228,5.069,95.191,95.191,0,0,0-1.014,24.6,24.249,24.249,0,0,1-.853,8.269,8.5,8.5,0,0,1-2.186,3.845,8.092,8.092,0,0,1-5.446,2.4,7.612,7.612,0,0,1-5.5-2.668,56.315,56.315,0,0,1-6.563-7.737l-.161-.268c-.161-.266-.319-.48-.48-.746l-2.293-4.216c-1.976-3.736-4-7.472-6.029-11.208-.214-.373-.429-.746-.641-1.065l-.429-.587a6.741,6.741,0,0,0-.534-.8,12.516,12.516,0,0,1-1.175-2.028c-1.494-3.789-4.162-6.724-8.856-9.979a2,2,0,0,1-.429-.373l-1.175-1.121.907-.534c.161-.107.324-.212.482-.319a2.2,2.2,0,0,1,1.226-.587,5.023,5.023,0,0,1,2.293.48c3.684,1.974,7.367,3.948,10.087,7.418a6.166,6.166,0,0,0,.8.853A7.877,7.877,0,0,1,167.373,173c2.668,3.738,6.246,5.071,11.1,4.216,2.454-2.773,4.857-5.868,5.763-9.87a61.509,61.509,0,0,1,3.2-9.979c.695-1.708,1.228-3.575,1.762-5.337.159-.692.373-1.333.585-2.028,1.655-5.391,3.789-9.392,6.726-12.594.212-.266.424-.534.639-.853.161-.214.375-.48.534-.694,2.561-3.149,5.763-5.444,9.711-7.845,3.631-2.186,6.938-4.162,9.5-7.257a2.555,2.555,0,0,1,2.934-1.065l.536.159.054.587a.933.933,0,0,0,.051.373,2.4,2.4,0,0,1-.1,1.494l-.48,1.067a15.985,15.985,0,0,1-3.2,5.018c-.694.746-1.44,1.494-2.135,2.24-1.655,1.708-3.309,3.468-5.176,5.071a32.074,32.074,0,0,0-7.791,9.765m54,107.793c-.266.694-.587,1.387-.855,2.081-.478,1.228-1.014,2.561-1.6,3.789a43.32,43.32,0,0,1-2.669,4.535,24.805,24.805,0,0,1-7.2,6.884,16.735,16.735,0,0,1-9.285,2.72,19.55,19.55,0,0,1-3.843-.371,2.646,2.646,0,0,1-.907-.322.761.761,0,0,0-.322-.107l-.585-.266.266-1.867.585-.322a1.47,1.47,0,0,1,.7-.373,25.838,25.838,0,0,0,6.616-3.363,18.049,18.049,0,0,1,1.708-1.067,10.258,10.258,0,0,0,1.76-1.652l.587-.59c.427-.426.8-.853,1.228-1.333s.853-.96,1.28-1.387a15.4,15.4,0,0,0,3.575-5.763l.214-.534a23.289,23.289,0,0,0,1.494-5.337,12.405,12.405,0,0,0-1.44-8.325,13.468,13.468,0,0,1-.907-1.762c-.268-.424-.482-.907-.748-1.333a9.013,9.013,0,0,0-2.827-3.041l-1.5-1.014c-1.867-1.282-3.736-2.561-5.549-3.789a7.357,7.357,0,0,0-1.762-.96,24.87,24.87,0,0,1-4.055-1.708,22.1,22.1,0,0,0-2.561-1.172l-.375-.161a12.653,12.653,0,0,0-2.133-.748c-3.9-.907-8.005-1.867-12.114-1.547a13.329,13.329,0,0,1-4.055-.266l-.96-.268.478-.907a2.136,2.136,0,0,0,.214-.534,4.681,4.681,0,0,1,.694-1.067,18.174,18.174,0,0,1,12.219-4.7,13.021,13.021,0,0,1,1.445.054,10.167,10.167,0,0,0,1.277.054c4.057-.266,8.22.641,13.287,2.883,1.121.478,2.244.907,3.365,1.333,1.172.427,2.347.907,3.468,1.387a30.77,30.77,0,0,1,3.841,2.188q2,1.36,3.843,2.883l.748.531a5.889,5.889,0,0,1,1.44,1.335c3.093,4.109,4.538,7.845,4.482,11.793a16.917,16.917,0,0,0,.056,1.708,26.764,26.764,0,0,1-2.617,11.793" transform="translate(68.004 0.001)" fill="#eb9d22"/><path d="M298.235,200.166c-.268-.694-.534-1.389-.855-2.135-.371-.96-.748-1.974-1.119-2.936-.48-1.44-.962-2.827-1.443-4.216-.748-2.028-1.44-4.109-2.188-6.136-.8-2.081-1.6-4.216-2.454-6.349q-1.038-2.723-2.079-5.444c-.375-.96-.7-1.92-1.016-2.934-.424-1.282-.907-2.561-1.387-3.843l-.692-1.6c-1.5-3.682-3.1-7.469-4.272-11.366a10.569,10.569,0,0,0-.424-1.172l-.161-.375c-.373-.96-.748-1.92-1.172-2.881-1.284-3.1-2.566-6.244-3.58-9.5-.371-1.067-.8-2.188-1.226-3.2l-.319-.8c-.427-1.065-.909-2.133-1.333-3.2-.909-2.186-1.815-4.428-2.668-6.67l-.641-1.652c-.59-1.655-1.226-3.363-1.869-5.018-.426-1.067-.853-2.081-1.226-3.146-.322-.855-.641-1.655-.962-2.51-.427-1.014-.851-2.028-1.28-3.095l-.853-2.081c-.107-.212-.163-.427-.266-.641-.27-.585-.59-1.226-.907-1.813-.641-1.389-1.335-2.773-1.869-4.216a8.511,8.511,0,0,0-2.347-3.095,4.29,4.29,0,0,0-.482-.054.2.2,0,0,0-.159-.054,1.713,1.713,0,0,0-.27.375,6.643,6.643,0,0,0-.478,1.44,25.817,25.817,0,0,1-1.92,5.922c-.694,1.6-1.548,3.522-2.242,5.551-.748,2.028-1.655,4-2.508,5.922l-.107.214c-1.014,2.3-2.083,4.535-3.2,6.777-.587,1.121-1.228,2.242-2.028,3.575-.962,1.655-1.976,3.254-2.99,4.908-.744,1.121-1.492,2.242-2.291,3.363-1.655,2.135-3.309,4.216-4.964,6.3l-.695.8c-.909,1.121-1.815,2.3-2.829,3.417-2.347,2.4-4.75,4.8-6.829,6.936l-.748.748a33.321,33.321,0,0,1-3.524,3.2c-2.133,1.547-4.375,2.934-6.509,4.321l-.694.429a3.681,3.681,0,0,0-1.972,3.307,42.971,42.971,0,0,0,.266,4.538,45.526,45.526,0,0,1-.107,13.179c-.107.641-.159,1.387-.214,2.188a29.189,29.189,0,0,1-1.6,7.845c-.266.907-.536,1.813-.8,2.72a1.943,1.943,0,0,1-.268.587c-1.547,2.668-3.626,5.924-7.043,8.059-.534.373-1.121.748-1.706,1.121-1.016.587-2.081,1.226-3.044,1.92a12.446,12.446,0,0,1-5.069,1.974c-2.881.534-5.335.909-7.63,1.175a3.73,3.73,0,0,0-2.934,1.762v.746c0,.641-.056,1.282-.056,1.974,0,1.708,0,3.468.056,5.176a22.724,22.724,0,0,1-.8,6.565,16.313,16.313,0,0,1-2.613,6.029c-1.067,1.335-2.135,2.722-3.254,4l-.429.585a9.944,9.944,0,0,1-2.135,2.083c-.694.371-1.335.8-2.028,1.226a44.5,44.5,0,0,1-5.444,3.041A42.882,42.882,0,0,1,158.368,246a40.79,40.79,0,0,0-4.8,1.869c-.962.427-1.976.8-2.883,1.121l-.907.319a120.706,120.706,0,0,1-13.767,3.789l-.536.161c-1.974.424-3.95.853-5.922,1.226-2.081.427-4.216.853-6.3,1.389a115.092,115.092,0,0,1-13.289,2.133l-1.387.161c-5.549.694-11.259.96-16.757,1.28l-2.293.107a16.9,16.9,0,0,0-6.512,1.5c0,.1-.054.159-.054.266a5.19,5.19,0,0,0-.214,1.121l-.051,2.508a68.856,68.856,0,0,0,.427,10.993c.051.319.051.639.107.96a4.21,4.21,0,0,0,.8,2.722,1.911,1.911,0,0,1,.322,1.119,36.421,36.421,0,0,0,.748,3.843,39.5,39.5,0,0,1,.8,5.176,6.054,6.054,0,0,0,.319,1.6A122.231,122.231,0,0,0,90.277,303.8a30.183,30.183,0,0,0,2.4,5.015,13.084,13.084,0,0,0,6.244,5.337l.266.107.587,1.121c.429.748.8,1.494,1.228,2.188,2.135,3.736,4.16,6.989,7.362,9.339a4.734,4.734,0,0,1,1.121.96,6.589,6.589,0,0,0,.641.585c.429.375.907.748,1.335,1.123.8.639,1.655,1.333,2.4,2.028,1.5,1.387,3.417,2.081,6.3,2.293a14.939,14.939,0,0,1,3.787.587,25.824,25.824,0,0,0,4.645.746c1.012.107,2.081.161,3.146.214a63.086,63.086,0,0,1,9.339,1.121,7.146,7.146,0,0,0,1.869.161l1.6.107a70.258,70.258,0,0,1,13.237,1.494c.21.054.424.054.639.107h.373c2.99.266,6.031.532,9.019.746,4.589.373,9.5,1.067,15.529,2.135,1.067.212,2.081.375,3.149.587,1.813.373,3.682.748,5.5,1.014.962.107,1.869.266,2.776.426,2.72.48,5.6.909,8.432,1.121,2.934.212,5.922.641,8.751,1.065,1.228.163,2.456.375,3.682.536.855.107,1.655.212,2.508.373,1.76.214,3.575.48,5.335.694a14.882,14.882,0,0,0,3.044-.054h.8l2.081-.161c.907-.054,1.813-.161,2.771-.161l1.016-.051a27.925,27.925,0,0,0,5.6-.482c1.548-.319,3.095-.639,4.645-.907,1.813-.373,3.573-.695,5.388-1.065a18.707,18.707,0,0,0,6.3-2.456,17.743,17.743,0,0,0,5.281-5.123c.482-.587.855-1.228,1.282-1.867l.8-1.282,2.617-.214c1.76-.158,3.519-.319,5.281-.373a9.758,9.758,0,0,0,5.123-1.708,8.9,8.9,0,0,0,1.818-4.162l.159-.692c.427-2.242.907-4.43,1.333-6.619.429-2.028.748-4.109,1.121-6.136l.266-1.548c.161-1.014.324-2.081.482-3.095a84.812,84.812,0,0,1,1.655-8.325l.319-1.387c.424-1.813.853-3.629,1.335-5.5.373-1.494.744-3.041,1.119-4.589.536-2.242,1.014-4.428,1.494-6.67l.426-2.028c.163-.534.214-1.014.322-1.494l.853-4.162c.587-2.615,1.121-5.283,1.6-7.9.214-1.067.373-2.135.534-3.149.161-1.067.322-2.081.48-3.149l.641-3.256c.855-4.428,1.762-8.963,2.4-13.445.585-4.111,1.494-8.432,2.72-13.662.266-.96.48-1.923.694-2.883.746-2.881,1.494-5.868,1.974-8.91a8.725,8.725,0,0,0,.214-1.228,11.851,11.851,0,0,1,.266-1.923c1.014-4.747.534-9.658-1.494-15.153M254.53,334.534a6.624,6.624,0,0,1-3.414,2.347l-.107.054a23.439,23.439,0,0,1-4.7,1.282,67.641,67.641,0,0,1-7.1.427,40.976,40.976,0,0,1-9.019-.96c-2.135-.48-4.216-1.067-6.3-1.655-2.508-.694-5.123-1.44-7.684-1.92a17.729,17.729,0,0,1-3.1-1.014c-.478-.214-.907-.375-1.333-.534l-3.149-1.121c-2.666-.96-5.391-1.923-8.059-2.883a10.9,10.9,0,0,0-1.76-.48l-.639-.159c-1.228-.322-2.454-.587-3.682-.907a102.809,102.809,0,0,1-10.355-2.829c-.319-.054-.587-.161-.907-.214l-.429-.1c-1.172-.268-2.345-.482-3.575-.694s-2.454-.429-3.626-.748a38.581,38.581,0,0,0-7.472-.694c-3.522-.1-6.989-.1-10.511-.1l-8.271-.107a10.886,10.886,0,0,0-1.869,0l-2.561.161c-2.773.159-5.656.373-8.432.692a45.175,45.175,0,0,0-4.482.96c-.8.214-1.547.429-2.349.589a1.959,1.959,0,0,0-1.065.692c.212.427.534.427.907.373a38.625,38.625,0,0,1,9.283-.212c1.123.107,2.188.159,3.309.212,3.843.107,7.633.375,11.366.694,2.936.212,5.924.373,8.807.48,2.454.107,4.908.214,7.362.426a34.894,34.894,0,0,1,5.337.907l1.92.375a59.188,59.188,0,0,1,10.087,2.829,3.156,3.156,0,0,0,.748.212c.159.054.319.054.48.107,2.025.48,2.133.587,3.946,2.454l.214.214v.266a6.265,6.265,0,0,1,.056.907,1.839,1.839,0,0,1-.214.641l-.107.322-.319.266a2.246,2.246,0,0,1-1.121.426h-.214a9.515,9.515,0,0,1-2.454-.214,93.5,93.5,0,0,0-16.757-2.133h-.266a8.988,8.988,0,0,1-1.6-.161,46.087,46.087,0,0,0-6.617-.96c-1.655-.161-3.417-.322-5.123-.587a100.4,100.4,0,0,0-11.795-1.175c-2.668-.161-5.442-.534-8.057-.907-1.175-.161-2.349-.319-3.521-.427l-.322-.054a5.771,5.771,0,0,0-.96-.054,41.13,41.13,0,0,1-7.737-.641c-.96-.158-1.867-.319-2.829-.426a12.536,12.536,0,0,1-8.057-3.843,9.738,9.738,0,0,0-1.547-1.387c-2.561-1.708-4.27-4.162-5.922-6.509-.429-.641-.909-1.228-1.335-1.869a1.3,1.3,0,0,1-.268-.8,1.064,1.064,0,0,1,.056-.641l.212-.427a1.258,1.258,0,0,1,.853-.587,98.662,98.662,0,0,1,10.46-.746h.375c3.468.054,6.936,0,10.4-.054,4.482,0,9.18-.054,13.769,0,4.267.107,8.644.427,12.806.692,1.5.107,3.044.214,4.535.322,2.242.159,4.538.373,6.833.585l2.293.268c2.988.319,6.029.641,9.017,1.172a56.444,56.444,0,0,1,6.085,1.389c.96.266,1.867.48,2.773.695,1.92.478,3.789,1.014,5.658,1.547a87.551,87.551,0,0,0,8.59,2.186,43.685,43.685,0,0,1,5.337,1.389c.8.266,1.6.48,2.4.692.322.107.694.214,1.014.322a15.709,15.709,0,0,1,2.293.641,63.084,63.084,0,0,0,7.474,2.24c1.492.375,2.986.748,4.482,1.175,2.133.641,4.323,1.121,6.456,1.548.8.161,1.547.322,2.349.48,2.508.534,4.962,1.014,7.523,1.494,1.228.214,2.51.373,3.789.587l3.149.48c2.242.322,4.535.641,6.777,1.014a2.118,2.118,0,0,1,.8.322,3.552,3.552,0,0,1,.373.212l.851.427Zm9.767-13.662a2.071,2.071,0,0,1-1.923,2.135c-2.242.373-4.43.694-6.509.909-2.137.266-4.109.371-5.978.478h-.319c-1.389.054-2.829.107-4.27.107-.855,0-1.762,0-2.615-.054a77.282,77.282,0,0,1-8.856-.96c-2.191-.319-4.43-.853-6.567-1.333-1.121-.214-2.293-.48-3.414-.748a40.3,40.3,0,0,1-4.377-1.121c-1.6-.427-3.309-.907-4.962-1.226a28.674,28.674,0,0,1-4.75-1.387,22.121,22.121,0,0,0-2.668-.855c-1.014-.319-2.025-.534-3.039-.8-1.121-.268-2.191-.534-3.258-.855-4.589-1.333-8.432-2.561-12.219-4a26.913,26.913,0,0,0-5.868-1.44l-1.6-.268a18.463,18.463,0,0,1-3.575-.907,15.052,15.052,0,0,0-2.454-.694l-.426-.051c-1.92-.429-3.843-.8-5.817-1.228l-2.508-.48c-.107-.054-.266-.054-.373-.107a38.369,38.369,0,0,0-9.019-1.494c-1.121-.054-2.3-.161-3.417-.266a89.571,89.571,0,0,0-9.551-.641,6.956,6.956,0,0,1-1.869-.161,21.271,21.271,0,0,0-7.362-.161l-.536.054a7.065,7.065,0,0,1-1.492.161l-21.611.319c-2.083,0-4.165,0-6.246-.054-.853,0-1.706-.107-2.668-.159l-2.081-.161.161-2.561,2.081-.694c1.387-.48,2.722-.96,4.109-1.335a10.584,10.584,0,0,1,2.561-.319,18.738,18.738,0,0,0,4.752-.694,29.446,29.446,0,0,1,5.973-1.119c2.03-.161,4.057-.268,6.085-.373,1.387-.056,2.776-.161,4.16-.214,1.123-.107,2.244-.214,3.309-.319,1.282-.161,2.51-.268,3.738-.322,1.6-.107,3.361-.161,5.442-.107.907,0,1.762.107,2.613.161.482.054.962.107,1.389.161l5.388.319,1.655.107c1.335.107,2.724.214,4.057.214h.424A50.084,50.084,0,0,1,170,298.033c.59.161,1.177.214,1.762.322l.7.107a51.064,51.064,0,0,1,6.507,1.494c1.815.531,3.789.96,5.659,1.387.907.214,1.867.426,2.827.641.482.1.96.212,1.44.319a17.823,17.823,0,0,1,3.894,1.121,78.967,78.967,0,0,0,7.579,2.561c1.6.48,3.2.96,4.75,1.494a19.036,19.036,0,0,0,2.51.641,17.125,17.125,0,0,1,2.4.641c2.3.692,4.7,1.333,6.992,1.92s4.643,1.175,6.992,1.92c2.133.748,4.375,1.228,6.563,1.762,1.655.373,3.309.746,4.908,1.175a10.136,10.136,0,0,0,1.818.319c.636.107,1.226.161,1.813.319l2.508.587c2.934.641,5.924,1.387,8.8,2.242a23.018,23.018,0,0,0,7.9.96c1.172-.054,2.293-.054,3.524,0,.585.054,1.119.054,1.706.054h.8Zm21.4-102.724a9.42,9.42,0,0,1-6.456,7.845,13.84,13.84,0,0,1-6.565.319l-.641-.159c-4.267-.96-8.644-1.974-12.858-3.309a7.321,7.321,0,0,0-2.03-.48,1.1,1.1,0,0,0-.639.161l.958,2.028c1.07,2.133,2.135,4.321,3.309,6.456,1.335,2.347,2.934,4.7,4.43,6.938.531.746,1.121,1.494,1.652,2.186a20.181,20.181,0,0,1,1.282,1.655l1.494,2.03c2.028,2.722,4.107,5.6,6.083,8.43a44.242,44.242,0,0,1,3.894,6.511,13.318,13.318,0,0,1,.962,8.7,6.531,6.531,0,0,1-1.547,2.829,17.722,17.722,0,0,1-6.509,4.64,12.959,12.959,0,0,1-5.337.909,54.674,54.674,0,0,1-5.924-.427c-.694-.054-1.387-.161-2.079-.214a2.677,2.677,0,0,1-1.445-.48,3.59,3.59,0,0,0-2.505-.587,31.5,31.5,0,0,1-8.113-.907c-.8-.161-1.6-.319-2.454-.48-2.561-.426-5.176-.907-7.791-1.335L231,270.393a7.9,7.9,0,0,0-1.333-.161,41.244,41.244,0,0,1-9.979-1.389,28.582,28.582,0,0,0-5.337-.531c-1.655-.107-3.2-.214-4.7-.429a49.949,49.949,0,0,0-10.62-.159,21.325,21.325,0,0,0-9.551,3.149,7.084,7.084,0,0,0-2.881,3.146,22.477,22.477,0,0,0-2.188,8.005,3.256,3.256,0,0,1-1.279,2.829l-.324.212-.317-.054c-2.615-.48-3.361-2.615-3.894-4.216a6.044,6.044,0,0,1-.214-1.974c0-5.656,1.333-9.926,4.216-13.394a60.384,60.384,0,0,1,5.815-6.029,9.484,9.484,0,0,1,4.323-2.188c1.655-.427,3.256-.855,4.857-1.282,1.867-.534,3.734-1.014,5.6-1.494a27.108,27.108,0,0,1,8.7-.853c1.813.212,3.736.266,5.337.319,1.014.054,2.081.054,3.095.054,1.333,0,2.668,0,4,.054,1.282.054,2.508.266,3.736.427l.266.054a98.834,98.834,0,0,0,17.4,1.228,8.8,8.8,0,0,0,3.044-.587,2.839,2.839,0,0,0,1.869-2.883,12.36,12.36,0,0,0-1.123-4.7c-1.065-2.24-2.186-4.428-3.093-6.136-.855-1.6-1.815-3.256-2.829-4.962-1.335-2.242-2.72-4.43-4.162-6.672l-.534-.853a6.57,6.57,0,0,0-.8-.96,26.274,26.274,0,0,1-5.712-10.62c-.159-.48-.317-.96-.424-1.438l-.214-.748a8.4,8.4,0,0,1,4.323-9.872c3.1-1.548,6.351-1.228,9.124-.748a33.55,33.55,0,0,1,4.747,1.335c1.818.641,3.738,1.172,5.551,1.706a64.306,64.306,0,0,1,8,2.669,16.723,16.723,0,0,0,7.1,1.547,2.137,2.137,0,0,0,.8-.054h.056v-.051a3.031,3.031,0,0,0,.159-.909,22.91,22.91,0,0,0-.8-5.6l-.161-.748c-.427-1.762-.853-3.468-1.282-5.176l-.319-1.226c-.159-.587-.322-1.175-.48-1.762-.266-1.014-.534-2.028-.748-3.041-.266-1.121-.585-2.188-.907-3.256a34.521,34.521,0,0,1-1.226-5.176,14.029,14.029,0,0,0-.962-3.363,11.731,11.731,0,0,1-.746-2.986,4.643,4.643,0,0,0-.107-.855,60.015,60.015,0,0,0-1.6-7.2c-1.172-3.789-2.242-7.74-3.256-11.527l-.907-3.521c-.161-.587-.266-1.228-.375-1.867l-.585-3.524c-.373-2.133-.694-4.216-1.121-6.295a13.251,13.251,0,0,1-.107-4.323l.107-.482.534-.159a1.776,1.776,0,0,1,2.083,1.28,21.464,21.464,0,0,0,2.025,4.75,29.929,29.929,0,0,1,1.547,3.256l.8,1.974a71.422,71.422,0,0,1,2.773,7.577c.907,3.2,2.135,6.407,3.309,9.446l.853,2.083a3.681,3.681,0,0,1,.268.692,47.153,47.153,0,0,0,2.454,7.633c.694,1.652,1.335,3.361,1.869,5.069a14.659,14.659,0,0,0,.641,1.652c.21.534.424,1.016.585,1.548.48,1.443,1.014,3.1,1.443,4.752a43.671,43.671,0,0,0,4,11.152l.159.266a4.758,4.758,0,0,1,.587,1.175,49.853,49.853,0,0,0,2.081,5.6c.268.587.534,1.228.748,1.815a18.084,18.084,0,0,1,.907,7.738" transform="translate(101.932 120.871)" fill="#eb9d22"/><path d="M389.965,289.528c-1.175-1.762-2.244-3.629-3.365-5.71a18.883,18.883,0,0,0-5.5-6.031c-2.081-1.547-4-3.2-5.763-4.8-1.6-1.387-3.254-2.988-5.015-4.747a29.021,29.021,0,0,1-2.081-2.4l-.748-.907c-.692-.8-1.333-1.6-2.028-2.4l-1.226-1.55c-1.387-1.706-2.776-3.414-4.162-5.176-.375-.534-.748-1.065-1.121-1.6a10.674,10.674,0,0,0-1.867-2.4c-.536-.48-1.07-.96-1.6-1.494a37.672,37.672,0,0,0-8.271-6.3c-1.44-.748-2.881-1.6-4.267-2.454-1.014-.641-2.081-1.226-3.146-1.815-.482-.266-.911-.531-1.389-.746-.907-.319-1.813-.694-2.724-1.014-1.706-.694-3.519-1.335-5.225-2.135a42.586,42.586,0,0,0-10.357-3.256c-2.079-.373-4-.8-5.281-1.813-7.418-1.547-14.408-.962-20.439-.214-.268.161-.534.268-.8.427a9.585,9.585,0,0,1-2.188.909,77.984,77.984,0,0,1-12.541,1.494,99.134,99.134,0,0,1-17.181-.853c-.7-.107-1.443-.163-2.135-.27a12.824,12.824,0,0,1-6.139-1.6,2.074,2.074,0,0,0-.907-.107l-2.349-.214c-1.706-.212-3.414-.373-5.067-.427a113.179,113.179,0,0,1-11.476-1.228c-2.24-.319-4.43-.639-6.67-.907-2.561-.266-5.174-.746-7.735-1.172-1.177-.214-2.3-.482-3.47-.641a13.075,13.075,0,0,0-1.333-.212c-.8-.107-1.6-.214-2.4-.375a73.177,73.177,0,0,0-11.685-1.494l-.534-.054c-7.1-.587-14.461-1.121-21.509-3.149-2.505-.692-5.067-1.282-7.521-1.867l-2.083-.48c-.641-.107-1.226-.268-1.813-.322a27.43,27.43,0,0,1-2.988-.692,71.625,71.625,0,0,1-10.194-3.95c-.426-.212-.907-.427-1.387-.695a23.8,23.8,0,0,1-3.468-1.813l-.694-.48a109.168,109.168,0,0,1-9.126-6.458,21.942,21.942,0,0,0-8.642-4,28.163,28.163,0,0,0-11-.587,61.714,61.714,0,0,1-18.036-.587c-.8-.159-1.547-.266-2.293-.426a57.893,57.893,0,0,0-6.085-.8q-2.482-.161-4.964-.161c-1.226,0-2.454.054-3.626.054l-2.722.054a10.783,10.783,0,0,0-2.349.212c-2.24.587-4.428,1.175-6.67,1.815l-.958.266a3.215,3.215,0,0,0-.909.375l-2.99,1.652c-1.972,1.121-4,2.188-5.973,3.256a11.19,11.19,0,0,0-2.724,2.081l-1.44,1.44c-.639.694-1.335,1.335-2.028,1.976a30.123,30.123,0,0,0-4.43,5.015c-.319.534-.641,1.121-1.012,1.655a47.066,47.066,0,0,0-3.47,6.19,27.762,27.762,0,0,0-1.387,18.465c.161.639.427,1.226.641,1.867.212.531.375,1.067.534,1.6a28.843,28.843,0,0,0,3.787,8.11,25.061,25.061,0,0,0,6.244,5.871,12.691,12.691,0,0,1,1.547.587c1.177.371,2.349.853,3.524,1.172,3.519.96,7.094,1.867,10.138,2.615,4.055,1.014,7.2,1.708,10.194,2.242,1.014.161,2.028.373,2.986.587.8.161,1.548.373,2.351.48,1.6.319,3.2.587,4.852.907,3.256.534,6.672,1.175,9.926,1.92,4.325,1.07,8.7,2.03,13.023,2.829,2.24.427,4.482.8,6.777,1.172,4.64.855,9.5,1.655,14.193,2.829,4.535,1.121,9.18,2.03,13.715,2.883,2.242.48,4.535.907,6.831,1.387,3.894.8,7.737,1.655,11.634,2.508.531.107,1.065.268,1.548.375a10.678,10.678,0,0,0,1.76.478c3.894.748,7.791,1.443,11.688,2.188l3.093.536c.426.1.909.159,1.389.266.641.105,1.333.159,1.974.319,2.722.587,5.388,1.121,8.113,1.708l7.735,1.652c1.389.322,2.776.589,4.109.855,1.282.214,2.561.375,3.843.587,1.335.161,2.668.373,4.055.587,1.067.214,2.188.427,3.309.694.907.159,1.869.373,2.776.531,1.655.322,3.309.59,4.964.909,2.827.48,5.656.96,8.483,1.547l.8.159a51.087,51.087,0,0,0,6.351,1.07,33.6,33.6,0,0,1,4.857.907q2.321.559,4.642,1.121c2.293.534,4.64,1.119,6.992,1.6,2.827.639,5.763,1.119,8.642,1.6l2.459.424c2.079.375,4.107.694,6.136.96,1.333.214,2.613.375,3.946.59,1.762.212,3.575.48,5.337.746l1.121.161a33.058,33.058,0,0,1,4.591.853,24.814,24.814,0,0,0,3.787.748l.96.1a33.166,33.166,0,0,1,5.015.909,56.009,56.009,0,0,0,8.432,1.867l.962.107a41.145,41.145,0,0,1,5.015.8,70.681,70.681,0,0,0,9.339,1.443l.692.051c3.095.322,6.192.643,9.287.909q4.08.4,8.483.641a82.759,82.759,0,0,0,17.078-1.335c1.655-.266,3.361-.694,5.015-1.121.746-.212,1.548-.427,2.347-.641,3.149-.746,6.029-1.438,8.646-3.254a51.534,51.534,0,0,1,5.23-3.095c.8-.482,1.652-.907,2.454-1.389,3.041-1.76,4.643-4.482,4.908-8.325a27.538,27.538,0,0,0,.054-2.988,5.632,5.632,0,0,0-.639-2.773M114.288,231.306c-.054.161-.054.322-.107.482l-.161.319a9.6,9.6,0,0,1-4.7,3.041,16.929,16.929,0,0,0-2.4,1.228c-.536.266-1.014.587-1.55.8a7.683,7.683,0,0,1-2.347.8c-.054,0-.161.054-.214.054a2.476,2.476,0,0,1-1.119-.322,3.88,3.88,0,0,0-.429-.159l-.641-.214.107-.694c.056-.212.056-.373.107-.585a2.971,2.971,0,0,1,.266-1.335,24.063,24.063,0,0,1,4.165-6.777,6.651,6.651,0,0,1,5.763-2.242c2.293.107,3.575,1.6,3.575,4.057a4.718,4.718,0,0,1-.322,1.545m29.778,1.708a7.987,7.987,0,0,1-4.057,5.978c-1.333.746-2.613,1.548-3.894,2.347l-.907.536c-.694.424-1.335.907-2.028,1.333l-1.282.853-.322-.054a1.681,1.681,0,0,1-1.333-1.974,24.61,24.61,0,0,1,2.564-9.285,9.818,9.818,0,0,1,1.813-2.4c.322-.319.641-.692.96-1.065l.268-.214a6.678,6.678,0,0,1,5.871.054l.212.107,2.186,3.468ZM155,234.722l-2.186,1.067-.375-.268a2.09,2.09,0,0,1-.907-2.827c.748-1.813,1.655-3.95,2.722-6.083a13.39,13.39,0,0,1,2.081-2.936,5.244,5.244,0,0,1,5.763-1.387,4.2,4.2,0,0,1,2.561,4.91,8.867,8.867,0,0,1-.958,2.135l-.214.371a11.914,11.914,0,0,1-.8,1.177l-.643.907-.266.107A52.1,52.1,0,0,0,155,234.722M168.238,247.9a5.533,5.533,0,0,1-4,1.655,7.9,7.9,0,0,1-1.92-.268l-.48-.319a10.237,10.237,0,0,1-.8-.748,4.175,4.175,0,0,1-.748-4.91,10.314,10.314,0,0,1,3.519-4.214,33.026,33.026,0,0,1,5.123-2.722,3.192,3.192,0,0,1,3.9.534l.159.161.056.266c.478,4.857-2.137,8.059-4.805,10.567m48.774-1.389a19.656,19.656,0,0,0-.692,1.867,12.374,12.374,0,0,1-1.547,3.577l-.268.373-1.92-.159-.214-.429c-.159-.319-.322-.639-.534-1.014a12.8,12.8,0,0,1-1.172-2.615,7.778,7.778,0,0,0-3.2-4.216l-.266-.266a6.049,6.049,0,0,1-.107-5.176l.159-.214c2.936-2.988,6.085-3.1,9.18-.266l.159.212a9.014,9.014,0,0,1,.426,8.325m22.735,4.535c-1.657,1.228-3.363,2.349-5.071,3.417l-1.333.907a4.742,4.742,0,0,1-1.121.427,1.021,1.021,0,0,0-.534.161l-.748.214-.266-.748a3.64,3.64,0,0,0-.161-.426,3.057,3.057,0,0,1-.373-1.175l.054-.266a7.369,7.369,0,0,1,.319-2.617l.748.322-.694-.48a50.01,50.01,0,0,1,3.041-6.4,9,9,0,0,1,2.242-2.24c.319-.266.587-.48.853-.694l.163-.159.266-.054a5.7,5.7,0,0,1,5.763,2.293l.159.161.054.266a7.922,7.922,0,0,1-3.361,7.1M262.959,261.4a10.575,10.575,0,0,1-1.443,3.041,12.908,12.908,0,0,0-.692,1.121l-.266.534-1.175-.214-.373-.427c-.322-.8-.7-1.6-1.07-2.4-.8-1.974-1.706-3.948-2.666-5.868a10.012,10.012,0,0,1-.962-6.246v-.212l.161-.159a4.836,4.836,0,0,1,.266-.429,8.1,8.1,0,0,1,1.121-1.28,4.106,4.106,0,0,1,3.044-.96,3.694,3.694,0,0,1,2.454,1.28,9.111,9.111,0,0,1,1.869,3.256,19.048,19.048,0,0,1-.268,8.966m12.485-5.71a3.134,3.134,0,0,1-2.613,1.28,7.225,7.225,0,0,1-1.014-.107c-3.361-1.44-3.789-3.948-3.95-6.19-.051-1.172-.1-2.4-.1-3.573-.054-.748-.054-1.443-.109-2.191a4.751,4.751,0,0,1,1.445-3.575l.317-.319.482.107c.107.054.21.054.319.107a2.729,2.729,0,0,1,1.335.478,10.557,10.557,0,0,1,1.438,1.228c.268.214.482.426.748.641a11.633,11.633,0,0,1,3.309,5.817,6.83,6.83,0,0,1-1.6,6.3m17.612,4.375a32.942,32.942,0,0,1-1.548,4.75,5.483,5.483,0,0,1-.962,1.494c-.159.214-.266.375-.426.587l-.424.641-.641-.375a4.7,4.7,0,0,0-.536-.266,2.694,2.694,0,0,1-1.277-.907,20.069,20.069,0,0,0-1.925-2.4c-.319-.427-.692-.853-1.065-1.28a9.928,9.928,0,0,1-2.3-7.845c.056-.268.107-.48.159-.8l.109-.587,1.547-1.867.161-.056a7.127,7.127,0,0,1,5.442.056l.214.051.641.8c.531.692,1.121,1.387,1.706,2.133a6.511,6.511,0,0,1,1.121,5.871m20.973.268a9.073,9.073,0,0,1-.322,1.547,10.485,10.485,0,0,0-.319,3.841,1.473,1.473,0,0,1-.48,1.121l-.268.375-.585.051a3.49,3.49,0,0,1-2.561-1.655l-1.014-1.226c-.641-.748-1.282-1.547-1.976-2.3a6.588,6.588,0,0,1-1.762-4.428c-.107-1.92.107-2.615,1.387-4.535l.109-.268.266-.054c.159-.054.322-.161.48-.214a8.323,8.323,0,0,1,1.5-.478,4.151,4.151,0,0,1,3.946,1.6,7.94,7.94,0,0,1,1.6,6.619" transform="translate(54.655 243.361)" fill="#eb9d22"/><path d="M414.97,269.942c-1.869-3.363-4.642-4.484-8.271-3.309a61.069,61.069,0,0,0-6.511,7.523c-1.815,2.4-3.95,3.631-6.617,3.577h-.322a67.964,67.964,0,0,0-7.523.48,20.5,20.5,0,0,0-8.644,2.454,6.015,6.015,0,0,1-2.776.853c-2.988.054-6.4.161-9.711,0a14.569,14.569,0,0,1-5.549-1.333,31.462,31.462,0,0,0-10.035-3.041c-1.492-.214-2.986-.48-4.267-.748a22.3,22.3,0,0,0-12.965.748,12.081,12.081,0,0,1-6.3.641c-.8-.161-1.655-.268-2.454-.429-1.175-.159-2.3-.319-3.468-.534a11.426,11.426,0,0,0-7.525,1.016,4.51,4.51,0,0,0-2.561,5.654,23.371,23.371,0,0,0,1.548,3.577,3.356,3.356,0,0,0,1.172,1.44,26.809,26.809,0,0,1,2.99,2.454c.641.534,1.226,1.067,1.867,1.547a8.606,8.606,0,0,0,3.417,1.867,16.719,16.719,0,0,0,8.858-.424,38.3,38.3,0,0,1,4.321-.96c.692-.163,1.389-.268,2.081-.429a4.22,4.22,0,0,1,3.363.695,10.593,10.593,0,0,1,4.857,6.563c.641,3.524,1.226,7.257,1.867,11.741A15.947,15.947,0,0,0,348.1,318.5a2.492,2.492,0,0,1,.534,2.776l-.159.319-.48.161c-.268.107-.587.214-.909.322l-1.757.317a28.507,28.507,0,0,0-2.939.589A33.466,33.466,0,0,1,335.831,324c-2.454.212-4.908.534-7.311.853-1.228.212-2.508.427-3.789.694-.853.159-1.706.319-2.613.48-1.282.214-2.617.373-3.894.585-2.137.268-4.323.589-6.407,1.014a105.158,105.158,0,0,1-21.346,2.4c-3.1,0-6.241.266-9.285.534-2.293.161-4.535.373-6.831.48-1.92.107-3.894.214-5.868.322-3.414.159-6.884.373-10.3.478-4.323.107-8.593.161-12.914.161-1.923.054-3.9.054-5.871.107a12.017,12.017,0,0,0-1.389.054l-4.267.161c-2.454.105-4.908.212-7.365.266-.853.054-1.708.054-2.508.054a43.473,43.473,0,0,0-4.538.212,58.553,58.553,0,0,1-8.057.107c-1.333-.051-2.349-.051-3.309,0a96.433,96.433,0,0,1-15.743.056c-1.121-.107-2.24-.163-3.361-.214-7.577-.375-15.153-.694-22.732-1.067h-.587a143.434,143.434,0,0,0-14.941-.96c-.962,0-2.028-.054-3.2-.161-3.789-.373-7.577-.748-11.315-1.121h-.373c-.96-.107-1.867-.214-2.829-.373a74.167,74.167,0,0,0-11.152-1.228,79.007,79.007,0,0,1-9.553-1.067l-2.079-.319c-2.3-.322-4.535-.694-6.831-1.121-2.028-.322-4.055-.695-6.029-1.014-3.789-.534-7.74-1.067-11.848-1.494-.96-.107-1.972-.268-2.99-.427a44.642,44.642,0,0,0-7.577-.534,5.151,5.151,0,0,1-1.652-.214l-2.722-.641c-1.494-.319-2.936-.692-4.43-1.014a8.567,8.567,0,0,0-2.508-.214,32.67,32.67,0,0,0-9.285,2.668,19.15,19.15,0,0,0-6.136,4.484l-.478.534c-1.23,1.494-2.566,2.988-3.685,4.535a42.458,42.458,0,0,0-2.934,4.8,16.6,16.6,0,0,0-.8,1.974,15.953,15.953,0,0,1-.748,2.028,19.51,19.51,0,0,0-1.762,9.5c0,1.172.107,2.4.214,3.629.1,1.067.161,2.188.212,3.254a26.6,26.6,0,0,0,1.92,8.432,8.968,8.968,0,0,0,1.815,2.829c1.762,1.762,3.682,3.468,5.391,4.962a4.407,4.407,0,0,0,2.4,1.016,6.184,6.184,0,0,1,2.242.639,21.117,21.117,0,0,0,6.619,1.974l1.009.214a2.281,2.281,0,0,1,.59.107,5.045,5.045,0,0,1,1.494.319,46.12,46.12,0,0,0,6.884,2.028,55.226,55.226,0,0,1,6.989,2.081,23.046,23.046,0,0,0,3.575.907c.694.161,1.389.268,2.083.482a10.223,10.223,0,0,1,1.706.48c.692.212,1.389.427,2.081.587,2.028.373,4.057.692,6.085,1.012l.8.161c-.056-.319-.107-.587-.159-.8a14.372,14.372,0,0,1-1.121-5.924v-.319c-.054-.96-.161-1.92-.214-2.934-.109-.748-.161-1.494-.212-2.242a12.365,12.365,0,0,1,0-2.456,2.606,2.606,0,0,1,2.827-2.454h.534l.8,1.762c.48,1.014.962,2.027,1.389,3.095a15.542,15.542,0,0,0,4.428,6.456A8.529,8.529,0,0,1,102.2,381.9a8.675,8.675,0,0,0,2.244,2.4l.319.266a20.674,20.674,0,0,0,2.4,1.44,12.173,12.173,0,0,1,2.936,1.815c.054,0,.319.054.429.054l.907.159q3.437.724,6.882,1.282h.161a10.855,10.855,0,0,0-.587-2.508,11.807,11.807,0,0,1-.426-1.282,28.263,28.263,0,0,1-.266-12.166l.1-.375,1.976-1.067,1.014,1.762c.319.587.641,1.175.909,1.762.48.8.907,1.652,1.333,2.508.907,1.813,1.867,3.575,2.827,5.337l.429.692c1.387,2.561,2.72,4.964,5.6,6.512l2.347.266c1.708.161,3.47.322,5.23.48,1.547.161,3.151.268,4.7.375,2.827.212,5.761.478,8.642.8,2.776.322,5.5.48,8.113.534h4.428c4.379.054,8.8.054,13.182.107.639,0,1.228.051,1.869.107h.48c.8.051,1.6.1,2.454.212,1.655.107,3.412.268,5.123.268,5.015,0,9.979-.107,14.995-.161l5.176-.107h1.121l3.789-.161c2.508-.107,5.069-.266,7.577-.319a36.463,36.463,0,0,0,7.472-.641,20.113,20.113,0,0,1,2.668-.319c1.492-.107,3.039-.212,4.587-.319a88.715,88.715,0,0,0,15.85-1.923,2.676,2.676,0,0,1,.639-.107,111.076,111.076,0,0,0,12.755-1.76l1.547-.268c.748-.158,1.494-.266,2.3-.373.746-.107,1.494-.161,2.188-.319,1.438-.268,2.934-.536,4.377-.8,2.081-.426,4.16-.8,6.241-1.175,1.869-.319,3.734-.534,5.6-.8,1.067-.161,2.081-.266,3.151-.426a48.781,48.781,0,0,0,10.3-2.456,16.039,16.039,0,0,1,3.417-.8c.426-.054.8-.107,1.175-.161.587-.1,1.172-.212,1.813-.266a18.065,18.065,0,0,0,2.349-.429c4.109-.8,8.162-1.652,12.219-2.506l.322-.056a14.115,14.115,0,0,0,3.039-.907,19.911,19.911,0,0,1,4.057-1.28c.373-.107.8-.214,1.228-.319l.585-.163a11.554,11.554,0,0,0,1.284-.371c1.065-.322,2.186-.748,3.254-1.121a56.383,56.383,0,0,1,8.218-2.51,6.776,6.776,0,0,0,1.014-.212c.8-.268,1.6-.534,2.454-.8,1.655-.531,3.417-1.119,5.176-1.548,2.988-.746,5.976-1.44,8.966-2.132,1.333-.268,2.722-.587,4.057-.909l.426-.1a7.992,7.992,0,0,0,1.333-.375l1.226-.531c1.762-.748,3.521-1.5,5.232-2.349.585-.319,1.172-.641,1.813-.96a24.786,24.786,0,0,0,5.174-3.044c.962-.8,1.818-1.6,2.724-2.454a45.816,45.816,0,0,1,4.589-3.841c.8-.907,1.655-1.815,2.454-2.722a26.356,26.356,0,0,0,4.75-6.139c1.121-2.293,2.3-4.694,3.254-7.255a20.3,20.3,0,0,0,.855-8.753A4.591,4.591,0,0,0,394,321.6a8.4,8.4,0,0,0-2.028.214,70.108,70.108,0,0,1-11.685.426,1.961,1.961,0,0,1-1.923-1.333l-.1-.268.051-.212a13.678,13.678,0,0,1,2.135-4.323c.375-.587.8-1.228,1.121-1.816l.268-.319a3.894,3.894,0,0,1,3.309-.641l.8.268c.748.212,1.44.48,2.186.748a10.987,10.987,0,0,0,6.992.371,7.412,7.412,0,0,0,3.843-2.079c2.72-3.044,4-5.763,4.053-8.646a7.56,7.56,0,0,1,3.309-5.922,2.871,2.871,0,0,0,.429-.268,3.253,3.253,0,0,0,.427-.319c.373-.322.8-.694,1.172-1.014a17.315,17.315,0,0,0,2.4-2.454,28.654,28.654,0,0,0,4.267-9.073,44.092,44.092,0,0,0,1.121-8.378,12.013,12.013,0,0,0-1.172-6.617M303.227,359.433c-.212.266-.375.478-.534.639a3.086,3.086,0,0,1-.8.855c-1.5,1.121-2.936,2.186-4.43,3.2a13.671,13.671,0,0,1-5.176,2.3c-2.4.587-4.855,1.389-7.15,2.188-1.121.373-2.242.746-3.309,1.121a34.583,34.583,0,0,1-3.79.853l-1.014.212c-2.988.59-5.922,1.175-8.91,1.708-1.121.214-2.3.373-3.417.536l-2.508.319c-.746.158-1.494.212-2.24.373-.962.161-1.923.319-2.829.48a68.3,68.3,0,0,1-10.46,1.282c-2.934.051-5.922.319-8.8.585l-2.51.214c-1.813.161-3.68.373-5.549.534l-2.613.266c-.27.056-.429.056-.587.107l-5.5.161c-3.682.161-7.311.266-10.937.426-.748,0-1.443.107-2.137.161s-1.387.161-2.135.161c-1.706.1-3.468.159-5.174.212l-3.309.107c-1.818.054-3.631.1-5.391.212a.671.671,0,0,0-.319.054c-.161,0-.375.054-.59.054-7.628-.054-15.846-.373-23.8-2.881a2.7,2.7,0,0,1-2.025-2.135l-.054-.214.054-.158a2.349,2.349,0,0,1,2.188-1.708c1.172-.212,2.4-.373,3.626-.534.907-.107,1.869-.214,2.829-.373.96-.107,1.92-.266,2.883-.373,1.014-.163,2.028-.322,2.986-.482l1.333-.158c1.23-.214,2.51-.375,3.789-.482.7-.054,1.333-.054,1.976-.1a43,43,0,0,0,5.868-.48,23.966,23.966,0,0,1,4.377-.214,41.16,41.16,0,0,0,6.882-.534l.962-.161c2.3-.266,4.7-.426,6.992-.585l1.226-.107c1.443-.107,2.883-.214,4.375-.268,2.561-.161,5.178-.266,7.791-.587,4-.427,8.113-.639,12.063-.853l7.2-.48c.641-.053,1.228-.053,1.867-.053.534,0,1.016-.054,1.547-.054.426-.053.853-.053,1.282-.1a23.873,23.873,0,0,0,3.417-.322,52.933,52.933,0,0,1,8.537-1.28,26.269,26.269,0,0,0,4.375-.8,31.793,31.793,0,0,1,3.9-.8c1.333-.159,2.613-.317,3.948-.531.694-.056,1.389-.161,2.081-.214,1.6-.214,3.254-.373,4.857-.748a49.382,49.382,0,0,1,10.832-1.333,18.674,18.674,0,0,0,4.589-.587,12.941,12.941,0,0,1,6.989.107l1.175.322Zm53.044-12.168a3.511,3.511,0,0,1-.322.639,4.418,4.418,0,0,1-.534.855,20.668,20.668,0,0,1-7.791,5.763c-1.172.426-2.291.907-3.414,1.387-1.443.587-2.99,1.228-4.538,1.762a37.36,37.36,0,0,1-6.188,1.175c-.962.158-1.869.266-2.827.426a5.176,5.176,0,0,1-1.23.161,10.6,10.6,0,0,0-1.28.212,45.65,45.65,0,0,1-8.912.748c-1.708,0-3.414-.054-5.123-.107-.853,0-1.708-.053-2.561-.053a4.366,4.366,0,0,1-2.881-1.121,3.118,3.118,0,0,1-.641-1.067,1.925,1.925,0,0,0-.214-.48l-.319-.639,1.548-.962a13.515,13.515,0,0,1,1.6-1.014,22.715,22.715,0,0,1,7.579-3.041c2.079-.319,4.216-.8,6.241-1.282,1.335-.266,2.669-.585,4-.853s2.613-.48,3.946-.695c1.282-.266,2.617-.48,3.9-.746A21.447,21.447,0,0,0,340,347.319a12.138,12.138,0,0,1,3.575-.748c3.095-.161,6.244-.319,9.339-.48a8.5,8.5,0,0,1,1.652,0h2.4Z" transform="translate(46.458 328.21)" fill="#eb9d22"/><path d="M356,260.125a2.075,2.075,0,0,0-2.083-1.282h-.8a16.538,16.538,0,0,0-3.309.322,25.874,25.874,0,0,1-6.081.639c-1.5-.054-3.044,0-4.538.054a22.836,22.836,0,0,1-4.964-.531,18.563,18.563,0,0,0-2.4-.375l-.909-.107c-1.014-.158-2.028-.266-3.093-.426-2.083-.268-4.111-.48-6.192-.853a13.521,13.521,0,0,0-7.418.319q-1.437.559-2.883,1.121l-.851.322a12.993,12.993,0,0,1-5.871,1.119c-2.776-.266-5.549-.534-8.271-1.067a29.686,29.686,0,0,0-9.339-.266c-2.081.214-4.162.48-6.19.8l-1.228.161a29.179,29.179,0,0,0-4.8.909,30.451,30.451,0,0,1-8.861,1.492h-.641a4.025,4.025,0,0,0-.853.054c-2.883.694-5.6.214-8.271-.266l-.534-.107a22.608,22.608,0,0,1-8.432-3.309c-1.545-.96-3.041-1.92-4.589-2.881-.426-.268-.855-.534-1.282-.8a37.592,37.592,0,0,1-3.519-2.4,9.708,9.708,0,0,0-7.206-1.974,11.242,11.242,0,0,0-1.974.427c-.266.054-.587.159-.907.214-.373.427-.8.8-1.228,1.226-.962.96-1.974,1.974-3.041,2.934-.319.268-.641.587-.96.909a12.751,12.751,0,0,1-4,2.881,49.2,49.2,0,0,1-5.442,1.708,3.98,3.98,0,0,1-2.242-.054,23.99,23.99,0,0,1-2.932-1.387c-.482-.319-.909-.641-1.389-.96a9.268,9.268,0,0,0-1.177-.855c-3.468-2.028-6.4-2.508-9.39-1.44-1.333.48-2.617.96-3.95,1.494a10.647,10.647,0,0,1-5.337.907,4.606,4.606,0,0,1-3.734-1.974c-.319-.427-.585-.8-.907-1.228-.268-.319-.534-.692-.8-1.065a13.008,13.008,0,0,0-6.458-5.071,6.648,6.648,0,0,0-6.139.536,8.365,8.365,0,0,0-2.028,1.867,14.165,14.165,0,0,1-1.813,1.76,3.5,3.5,0,0,0-.587.8,4.372,4.372,0,0,1-.426.641c-1.389,1.92-3.095,4.216-6.458,3.841-2.559.48-4,1.494-4.7,3.363l-.214.587c-.371.96-.692,1.92-1.065,2.881a6.406,6.406,0,0,1-7.684,4.27c-.96-.214-1.869-.427-2.829-.695-.8-.161-1.6-.373-2.4-.531a9.582,9.582,0,0,0-5.924.692,3.666,3.666,0,0,0-1.974,1.92c-.375.909-.8,1.92-1.119,2.881a5.939,5.939,0,0,1-2.083,3.1l-.319.212-.322-.054a.9.9,0,0,0-.373-.054,2.8,2.8,0,0,1-1.494-.534c-.266-.266-.587-.478-.907-.746a11.409,11.409,0,0,1-2.561-2.508c-2.776-3.948-6.672-5.551-12.221-4.908l-1.494.159a47.69,47.69,0,0,1-4.8.427,71.322,71.322,0,0,0-10.352.855,15.227,15.227,0,0,1-3.093,0c-.962-.056-1.762-.163-2.564-.268s-1.6-.161-2.456-.266A104.8,104.8,0,0,1,70.5,267.65c-1.172-.268-2.347-.534-3.468-.855-1.226-.319-2.454-.641-3.736-.853a26.384,26.384,0,0,1-6.029-2.242c-.692-.322-1.335-.641-2.028-.907a11.046,11.046,0,0,1-2.881-1.708l-.536-.375c-2.561-2.186-5.23-4.428-7.684-6.775a18.81,18.81,0,0,0-3.095-2.668h-2.4a5.936,5.936,0,0,0-5.335,4.27,8.16,8.16,0,0,0,.744,6.617l.27.48A11.1,11.1,0,0,1,35.6,265.14l.214.8c.214.639.429,1.333.587,1.974.161.694.319,1.44.482,2.188l.266,1.547-.587.266a2.309,2.309,0,0,1-3.041-.96,18.073,18.073,0,0,0-4.428-4.377,3.862,3.862,0,0,0-4.752-.212,10.071,10.071,0,0,0-2.347,2.4,4.252,4.252,0,0,0-.96,3.894,5.234,5.234,0,0,1-.8,4.216,4.416,4.416,0,0,1-.427.639,3.048,3.048,0,0,0-.373.482c-1.226,2.186-2.244,4.374-1.5,6.777a22.4,22.4,0,0,0,1.282,3.093l.373.748a19.3,19.3,0,0,0,1.177,2.135,4.4,4.4,0,0,1,.319,4.323l-.748,1.867c-1.121,2.773-2.24,5.656-3.151,8.59a6.327,6.327,0,0,0-.21,3.522c1.121,3.95,3.361,6.192,6.882,6.777.8.161,1.657.375,2.456.59.692.158,1.333.319,1.972.424a6.338,6.338,0,0,1,3.843,2.776,7.891,7.891,0,0,1,1.177,4.91c-.056,2.188-.27,4.589-.59,7.311a9.807,9.807,0,0,0,.268,4.964,4.55,4.55,0,0,0,.639,1.172c1.6,1.335,2.988,2.349,4.908,1.813a3.691,3.691,0,0,1,.7-.1,1.227,1.227,0,0,1,.48.051h.907l.212.536c.163.426.322.907.482,1.333.319.96.639,1.869,1.014,2.722a5.337,5.337,0,0,0,6.936,2.722,24.236,24.236,0,0,0,3.524-1.762c.48-.266.958-.534,1.44-.8a22.607,22.607,0,0,0,4.747-3.256,12.463,12.463,0,0,1,6.139-3.1,25.163,25.163,0,0,1,6.724-.107,26.546,26.546,0,0,0,6.619-.373,7.369,7.369,0,0,0,1.65-.536,11.734,11.734,0,0,0,5.286-4.748,8.8,8.8,0,0,0,1.655-3.789c.051-.48.107-.96.159-1.44a8.536,8.536,0,0,0,.161-2.829l-.054-.054a6.725,6.725,0,0,0-.748-.266,6.54,6.54,0,0,1-4.267-3.307,20.173,20.173,0,0,1-2.028-4.323,2.784,2.784,0,0,0-.48-.855.74.74,0,0,0-.214.161c-1.494,1.655-3.414,2.135-5.283,2.615-3.149.8-7.63-1.014-8.912-4.428a10.617,10.617,0,0,1-.212-7.26c.161-.585.319-1.119.478-1.655l-.692.694c-.587.641-1.172,1.282-1.813,1.867l-.429.375a15.836,15.836,0,0,1-4.162,2.988,5.827,5.827,0,0,1-4.428.268,11.026,11.026,0,0,1-5.817-5.978,7.225,7.225,0,0,1,.054-5.868,17.779,17.779,0,0,0,1.121-2.936c.214-.748.427-1.44.692-2.133a7.094,7.094,0,0,0-.371-6.3,1.889,1.889,0,0,0-1.711-1.119h-.1c-.48,0-1.016.1-1.547.159-.268.054-.587.054-.907.107l-.375.054a3.052,3.052,0,0,1-2.668-.587l-.212-.212a2.471,2.471,0,0,1,.319-3.044,7.392,7.392,0,0,1,1.976-1.6,11.389,11.389,0,0,1,8.162-1.065l.322.1a16.761,16.761,0,0,1,4.323,5.125c1.282,2.454,2.773,6.134,1.226,10.4-.319,1.014-.585,2.083-.853,3.1a5.771,5.771,0,0,0,.8-.8,20.918,20.918,0,0,1,5.337-4.27c2.666-1.44,4.962-1.6,6.992-.427a8.538,8.538,0,0,1,4.428,5.868,16.109,16.109,0,0,1-.159,6.619,2.379,2.379,0,0,1-.107.587l1.226-.855c3.149-2.186,6.351-2.081,9.287.426a10.7,10.7,0,0,1,3.041,3.845,8.317,8.317,0,0,0,2.934,3.575,14.367,14.367,0,0,0,5.442.639,7.278,7.278,0,0,0,5.712-2.508l.159-.268a11.545,11.545,0,0,0,2.349-3.575,5.513,5.513,0,0,1,1.6-2.615l.322-.266.375.107a2.935,2.935,0,0,1,2.24,2.293,11.2,11.2,0,0,0,3.309,4.377,7.969,7.969,0,0,0,6.67,2.293,15.125,15.125,0,0,0,7.9-3.2,16.282,16.282,0,0,1,1.865-1.282,9.26,9.26,0,0,0,.962-.587l.641-.373.427.534a21.515,21.515,0,0,1,2.508,4c.375.695.8,1.389,1.175,2.028l3.041,2.135A14.023,14.023,0,0,0,149.965,320a21.224,21.224,0,0,0,6.884-3.2c.636-.427,1.28-.909,1.813-1.333l1.067-.695a3.663,3.663,0,0,1,3.093.534c.429.319.909.639,1.445.96a16.977,16.977,0,0,1,2.505,1.974c1.869,1.92,7.043,3.575,9.872,3.1a4.7,4.7,0,0,0,.8-.268c.212-.051.478-.159.746-.212.639-.159,1.335-.319,1.974-.48l1.5-.373.319.319c.322.268.639.587.962.853a12.918,12.918,0,0,1,2.079,2.083,6.226,6.226,0,0,0,4.323,2.347l.478.054a18.278,18.278,0,0,1,1.818.373,7.667,7.667,0,0,0,5.815-.161,4.976,4.976,0,0,1,1.387-.373c.319-.107.59-.161.909-.268l.212-.051c.322-.107.96-.373,1.016-.534a5.9,5.9,0,0,1,1.492-1.708,6.06,6.06,0,0,0,.962-1.121c2.505-3.894,3.412-7.15,2.988-10.618-.268-2.188.373-3.417,2.4-4.484l1.121-.585c.748-.429,1.44-.8,2.188-1.177a8.839,8.839,0,0,0,3.309-2.934,18.914,18.914,0,0,0,3.521-7.737,8.877,8.877,0,0,1,2.186-4.482l.161-.107a2.674,2.674,0,0,1,3.47.534l.107.159a8.948,8.948,0,0,1,1.226,4.91c-.054,2.829-.107,5.6-.161,8.432v1.387a25.273,25.273,0,0,0,.855,8.593,7.381,7.381,0,0,0,2.72,4,9.042,9.042,0,0,0,4.7,2.135,17.231,17.231,0,0,0,7.2-1.014,27.119,27.119,0,0,0,8.005-4.216c1.972-1.6,3.841-3.414,5.654-5.176.8-.8,1.6-1.6,2.454-2.347l1.708-1.6.48.319a12.907,12.907,0,0,1,1.121.692c.748.429,1.389.855,2.137,1.228,4.107,1.976,7.735,1.6,11.045-1.228a26.541,26.541,0,0,0,2.4-2.508,6.6,6.6,0,0,1,3.9-2.293l.266-.054.96.534c.587.319,1.282.641,1.923,1.067a7.761,7.761,0,0,0,2.613,1.067c2.347.587,4.642.161,7.257-.322l.161-.1c.163-.107.322-.268.48-.375a13.708,13.708,0,0,0,5.978-11.578,9.388,9.388,0,0,0-3.309-7.257,4.591,4.591,0,0,0-3.522-1.548,8.941,8.941,0,0,1-2.4-.268l-.319-.054c-2.135-.427-4.267-.853-6.4-1.44a22.749,22.749,0,0,0-6.244-.746,1.831,1.831,0,0,1-.692-.161l-.48-.161-1.175-1.708.161-.427c.107-.107.107-.266.159-.373a3.019,3.019,0,0,1,.694-1.175,10.125,10.125,0,0,1,5.442-2.72l.7-.054a24.12,24.12,0,0,1,2.771-.214c2.3.054,4.75.161,7.152.427a21.656,21.656,0,0,0,8.646-1.014,14.908,14.908,0,0,1,6.188-.746,15.24,15.24,0,0,0,4.805-.268A5.87,5.87,0,0,1,314,271.81a45,45,0,0,0,8.861-.96c3.095-.746,6.241-1.28,9.339-1.762,1.172-.212,2.347-.424,3.575-.585.641-.161,1.282-.214,1.923-.322.424-.054.8-.054,1.172-.1a25.611,25.611,0,0,0,5.015-1.5l.8-.266c1.389-.534,2.776-1.014,4.165-1.547,1.706-.641,3.412-1.226,5.123-1.867a9.919,9.919,0,0,0,1.494-.748l.319-.159c.59-.909.48-1.443.214-1.869M207.81,299.08c-.426,1.867-.8,3.843-2.51,5.391-3.093,2.827-6.561,3.575-10.189,2.186a16.234,16.234,0,0,1-1.708-.746l-.268-.107c-.534.107-.748.48-1.065,1.121a8.662,8.662,0,0,1-3.044,3.682,8.125,8.125,0,0,1-4.7,1.387,10.626,10.626,0,0,1-2.188-.268,7.445,7.445,0,0,1-4.96-3.734c-.163-.319-.322-.587-.482-.853a7.891,7.891,0,0,1-.907-1.762,12.911,12.911,0,0,1-.536-2.135v-.161a2.8,2.8,0,0,0-.531.375,22.4,22.4,0,0,1-4.857,3.787,20.71,20.71,0,0,1-5.5,2.081,7.819,7.819,0,0,1-6.241-1.44,6.918,6.918,0,0,1-1.708-1.92c-.107-.161-.212-.322-.268-.429l-.1-.159a12.529,12.529,0,0,1-.587-6.619c.054-.639.161-1.28.161-1.92a4.134,4.134,0,0,0-1.228.534c-.48.268-.96.587-1.44.907-.375.268-.8.534-1.175.748a24.539,24.539,0,0,1-7.633,2.936,11.185,11.185,0,0,1-9.39-1.389,9.089,9.089,0,0,1-3.9-5.071,12.779,12.779,0,0,1-.319-5.761c.375-2.4,1.974-4.109,3.417-5.5a15.7,15.7,0,0,1,8.325-3.787,2.747,2.747,0,0,1,1.172.107c.161,0,.268.054.427.054l.8.1-.1.8c-.268,2.508-1.815,4.109-3.2,5.549a8.873,8.873,0,0,0-2.4,4.642c.427,1.226,1.172,1.655,2.669,1.44a18.375,18.375,0,0,0,6.616-2.347,10.325,10.325,0,0,1,1.335-.694c.639-.319,1.28-.694,1.92-1.014a11.123,11.123,0,0,1,5.549-1.228,7.355,7.355,0,0,1,6.244,2.456c1.655,2.613,1.28,5.23.962,7.523-.056.641-.163,1.228-.214,1.867a.362.362,0,0,0,.48.107,8.56,8.56,0,0,0,1.6-.853l.748-.587a54.822,54.822,0,0,0,4.642-3.894,10.749,10.749,0,0,1,3.682-1.974l.373-.161a3.027,3.027,0,0,1,1.815-.054c3.256.639,6.029,3.843,6.509,7.365a15.48,15.48,0,0,0,.587,2.613,4.269,4.269,0,0,0,.909-1.226,3.663,3.663,0,0,1,.531-.746,7.812,7.812,0,0,1,3.894-2.99,7.228,7.228,0,0,1,6.726.694,5.787,5.787,0,0,0,4.538.746c1.543-.266,3.093-.692,4.053-2.186a3.922,3.922,0,0,1,.429-.48l.212-.161.373-.107a1.7,1.7,0,0,1,1.547.534,1.556,1.556,0,0,1,.375,1.44,11,11,0,0,0-.268,1.282" transform="translate(20.739 306.97)" fill="#eb9d22"/><path d="M237.863,151c-.426-2.934-1.07-5.337-2.988-7.1a18.453,18.453,0,0,0-4.216-.054,10.7,10.7,0,0,0-1.335.054h-.851a58.6,58.6,0,0,1-11.795-.482l-.96-.212a51.365,51.365,0,0,1-8.8-2.081c-3.361-1.175-7.2-2.722-9.979-6.085a2.307,2.307,0,0,0-1.869-.853,16.521,16.521,0,0,0-3.2.373,21.585,21.585,0,0,0-3.734.96,68.6,68.6,0,0,1-14.836,3.256,3.03,3.03,0,0,0-1.869.748,7.429,7.429,0,0,0-2.24,3.149l-.214.641a17.092,17.092,0,0,0-1.172,5.015,27.686,27.686,0,0,1-.641,3.843,9.335,9.335,0,0,0-.051,4.214,2.826,2.826,0,0,1-.482,2.776l-.322.319-.424-.054a2.1,2.1,0,0,1-1.282-.319,7.677,7.677,0,0,1-2.988-4.428,20.111,20.111,0,0,1-.48-4.484v-1.121a48.627,48.627,0,0,1,.48-6.777c.054-.266.1-.587.161-.907-.748,1.228-1.548,2.561-2.3,3.843a21.245,21.245,0,0,0-1.655,4.109c-.214.692-.427,1.335-.641,1.976a26.03,26.03,0,0,0-1.706,9.87c.054.853.054,1.762.054,2.668a6.35,6.35,0,0,1-.268.96c-.051.161-.107.322-.159.534l-.429,1.228-.907-.907a3.348,3.348,0,0,0-.482-.429,3.284,3.284,0,0,1-.8-.907,21.659,21.659,0,0,1-1.333-2.934c-2.079-5.23-1.92-10.886.375-17.824.159-.48.373-.96.585-1.494a9.51,9.51,0,0,0,.694-1.813,4.416,4.416,0,0,0-1.706-.161h-.482a119.554,119.554,0,0,1-19.637-1.923l-1.92-.373a108.257,108.257,0,0,1-11.205-2.4c-1.123-.319-2.244-.641-3.417-.96-2.454-.694-5.015-1.389-7.472-2.188-1.494-.48-2.936-.96-4.377-1.44l-2.079-.748c-2.883-.96-5.763-1.92-8.593-2.881h-.266a6.872,6.872,0,0,1-1.014.692,8.8,8.8,0,0,0-2.724,2.508c-.585.909-1.172,1.762-1.757,2.615a20.816,20.816,0,0,0-2.936,5.018,3.729,3.729,0,0,1-2.3,2.561l-.266.1-.322-.1a2.669,2.669,0,0,1-1.547-3.256c.161-1.44.375-2.881.641-4.27a14.287,14.287,0,0,1,2.242-5.976,23.189,23.189,0,0,0,1.44-2.454l.266-.427c0-.054.054-.107.054-.214-.054,0-.107.054-.159.054a13.665,13.665,0,0,0-3.629,3.093c-2.936,3.256-4.91,7.367-6.192,12.969a71.119,71.119,0,0,0-1.492,10.138,2.49,2.49,0,0,1-.214.907,2.027,2.027,0,0,1-.48.48l-.482.482-1.972-.482-.109-.424a66.551,66.551,0,0,1-1.706-7.365,16.468,16.468,0,0,1-.266-3.629V139.1c-.107-3.629,1.014-6.938,2.133-10.14l.266-.746c.056-.161.056-.322.163-.429.427-.692.855-1.387,1.226-2.081a20.789,20.789,0,0,1,3.363-4.747,1.993,1.993,0,0,0,.427-.748c.056-.054.056-.054.056-.107a1.967,1.967,0,0,0-.214-.319c-.641-.322-1.389-.692-2.081-1.067-.748-.373-1.443-.694-2.191-1.121a4.036,4.036,0,0,0-1.706-.427,1.8,1.8,0,0,0-.534.054,7.558,7.558,0,0,0-4.43,1.869l-.534.478a24.739,24.739,0,0,0-4.162,4.964,18.968,18.968,0,0,0-1.492,3.841,57.359,57.359,0,0,0-1.657,6.619c-.907,5.868.853,11.473,2.456,15.689a34.316,34.316,0,0,0,6.244,9.924,50.293,50.293,0,0,0,6.3,5.871c.531.48,1.065.907,1.6,1.387a9.46,9.46,0,0,0,2.025,1.282,5.888,5.888,0,0,1,1.711,1.44,4.036,4.036,0,0,0,2.934,1.387c1.226.107,2.454.214,3.736.375,1.972.214,3.948.48,5.922.746,4.055.534,8.22,1.121,12.329,1.282,2.079.107,4.216.319,6.244.534,1.119.107,2.291.214,3.412.319,3.843.319,7.633.641,11.476.96l18.784,1.547a8.993,8.993,0,0,0,1.226.056,7.438,7.438,0,0,0,1.067.051c5.549.373,11.154.748,16.7,1.175l.8.051c1.065.056,2.133.107,3.2.27,3.519.424,7.15.692,10.618.907,2.188.159,4.428.266,6.614.478s4.379.429,6.512.59l1.228.159c.59.054,1.228.107,1.869.161,3.095.268,6.241.48,9.339.692.427,0,.907.054,1.333.054l.748-.054a55.177,55.177,0,0,0,12.858-1.494,40.405,40.405,0,0,0,11.368-4.482,29.862,29.862,0,0,0,4-3.363q.958-.881,1.92-1.76c.159-.107.212-.161.212-.212a22.206,22.206,0,0,1,1.28-1.869,13.226,13.226,0,0,0,2.137-4.109l.051-.214A22.079,22.079,0,0,0,237.863,151m-7.525,11.953-.159.746a12.324,12.324,0,0,1-3.631,5.978c-.371.373-.8.641-1.172.96a4.318,4.318,0,0,0-1.44,1.333,3.552,3.552,0,0,1-2.081,1.389,65.212,65.212,0,0,1-10.993,2.186,2.574,2.574,0,0,1-.639.054,8.21,8.21,0,0,1-2.188-.319c-1.976-.534-4-1.121-6.029-1.813a4.366,4.366,0,0,1-2.083-1.282l-.319-.48c-1.5-1.976-3.095-4.055-3.417-6.938a56.953,56.953,0,0,1-.107-9.124c.161-2.135.429-4.27.748-6.512.107-.96.214-1.92.373-2.934v-.375l2.081-1.333a1.138,1.138,0,0,1,1.228,0l1.226.268-.371.266a3.534,3.534,0,0,1,1.012,2.242,27.739,27.739,0,0,0,.641,3.575,25.421,25.421,0,0,1,.8,4.964c.107,1.813.266,3.573.534,5.442.051.748.159,1.494.214,2.242l1.333,1.974a3.024,3.024,0,0,1,.639.214,8.72,8.72,0,0,0,1.869.478,28.269,28.269,0,0,0,8.537-.478,13.712,13.712,0,0,0,4.216-1.976c.373-.266.748-.478,1.121-.692a4.549,4.549,0,0,0,.962-1.175c.373-.641.744-1.172,1.065-1.762.375-.694.8-1.333,1.226-2.028a7.125,7.125,0,0,0,1.121-4.428v-5.6l1.389,1.44a9.724,9.724,0,0,0,.746.746,4.475,4.475,0,0,1,.96,1.123,14.511,14.511,0,0,1,.909,2.293c.96,3.254.319,6.351-.322,9.339" transform="translate(67.955 144.473)" fill="#eb9d22"/><path d="M318.08,303.2a8.1,8.1,0,0,1-4.377,1.974c-2.881.587-5.761,1.228-8.644,1.815a9.152,9.152,0,0,0-1.815.641,16.42,16.42,0,0,1-7.365,1.6,22.035,22.035,0,0,0-3.2.375,31.112,31.112,0,0,1-6.244.695h-.161a58.788,58.788,0,0,0-8.11.692l-.962.107a22.592,22.592,0,0,1-4.428.266,22.059,22.059,0,0,0-6.4.587,47.492,47.492,0,0,1-10.781,1.335,12.349,12.349,0,0,0-3.309.48,19.214,19.214,0,0,1-4.267.587c-4.323.054-8.11.266-11.688.531-2.4.214-4.855.214-7.309.214-1.55,0-3.041,0-4.589.054-2.03.054-4.057.161-6.085.268-1.44.1-2.936.159-4.375.212-1.657.107-3.258.054-4.805.054-.641,0-1.28-.054-1.92-.107-.907,0-1.706-.054-2.613-.054-1.762,0-3.47.054-5.178.107-2.133.107-4.321.161-6.456.161-2.03.054-4,0-6.031-.107-.907,0-1.813-.054-2.722-.054h-1.384c-.8,0-1.548,0-2.3-.054-1.869-.107-3.789-.159-5.659-.266L174,315.26c-.212,0-.478-.054-.748-.054a10.2,10.2,0,0,0-1.277-.054h-.27c-5.067.214-10.138-.587-15.687-1.494a65.481,65.481,0,0,0-7.15-.8c-1.6-.107-3.2-.268-4.8-.429a71.859,71.859,0,0,0-8.271-.48c-2.883.107-5.766,0-8.593-.053-1.119-.051-2.188-.051-3.307-.051-.909-.054-1.708-.107-2.456-.214-3.1-.426-6.188-.855-9.231-1.333-.534-.107-1.067-.214-1.547-.322a9.969,9.969,0,0,0-1.228-.268l-.746-.159a16.933,16.933,0,0,0-2.4-.373A133.514,133.514,0,0,1,90,307.362c-2.668-.48-5.391-.639-8.005-.853-1.335-.054-2.613-.161-3.948-.268l-3.843-.373c-2.186-.214-4.375-.427-6.616-.641-1.226-.1-2.454-.159-3.68-.266l-.855-.054a35.572,35.572,0,0,1-9.019-1.335,4.271,4.271,0,0,1-2.773-1.867,3.173,3.173,0,0,1,.8-3.041,2.42,2.42,0,0,0,.427-.587c.107-.107.159-.214.266-.322a6.221,6.221,0,0,0,1.818-4.747,2.116,2.116,0,0,1,.1-.375v-.054a2.3,2.3,0,0,1,2.776-.746,7.31,7.31,0,0,0,6.989-.748c2.3-1.44,4.8-1.494,7.952-.266a4.942,4.942,0,0,1,.534.266c.159.107.322.161.48.268a13.117,13.117,0,0,0,8.539,1.067,10.033,10.033,0,0,1,6.4.48c0,.054.051.107.1.161a3.8,3.8,0,0,0,1.016,1.067,25.343,25.343,0,0,0,7.686,3.468,52.427,52.427,0,0,0,10.886,1.121,16.745,16.745,0,0,0,5.015-.855,24.638,24.638,0,0,1,15.419-.534,32.66,32.66,0,0,1,6.4,2.561,25.1,25.1,0,0,0,4.111,1.547,61.575,61.575,0,0,0,6.829,1.389l.8.1a26.009,26.009,0,0,0,7.579.161,20.139,20.139,0,0,0,3.626-.907l.375-.107c.373-.161.8-.319,1.172-.48a8.954,8.954,0,0,1,1.333-.534,11.265,11.265,0,0,0,4.857-2.508l.214-.161a27.1,27.1,0,0,0,3.682-3.361,10.932,10.932,0,0,0,2.3-4.589c.266-.909.531-1.762.746-2.615l.375-1.282a1.3,1.3,0,0,1,1.119-.319,2,2,0,0,1,1.335.8,19.007,19.007,0,0,1,1.387,2.293A7.436,7.436,0,0,0,178.8,292.1l.268.214c.48.427.8.641.907,1.121a2.529,2.529,0,0,0,1.121,1.333,15.834,15.834,0,0,1,2.293,1.548,17.567,17.567,0,0,0,4.377,2.51,5.375,5.375,0,0,1,1.44.907,7.041,7.041,0,0,0,3.521,1.494c5.283.692,9.607-.426,13.126-3.417.748-.639,1.55-1.172,2.351-1.76l.373-.214a11.631,11.631,0,0,0,2.668-2.881,11.881,11.881,0,0,1,4.642-4,2.131,2.131,0,0,1,1.813,0,16.433,16.433,0,0,0,7.043.746,14.885,14.885,0,0,0,6.031-1.76,37.328,37.328,0,0,0,3.363-2.188c.373-.322.8-.587,1.226-.909a15.774,15.774,0,0,0,1.335-.96c.478-.319.958-.641,1.44-1.014a2.976,2.976,0,0,1,3.789,0,8.3,8.3,0,0,0,6.136,1.815,14.117,14.117,0,0,1,2.615-.054h1.28a12.867,12.867,0,0,0,7.9-2.722l.478-.373a8.323,8.323,0,0,1,1.445-1.067,9.042,9.042,0,0,0,3.2-2.883c.375-.48.8-.907,1.226-1.387l.429-.427a4,4,0,0,1,4.216-1.067,11.007,11.007,0,0,1,1.76.534l.322.107c.427.159.907.319,1.333.48a23.083,23.083,0,0,1,3.1,1.175,21.21,21.21,0,0,1,6.721,4.64,19.738,19.738,0,0,0,5.871,4.484,48.859,48.859,0,0,0,9.872,3.948l3.041.8a64.069,64.069,0,0,0,9.765,2.028l1.067.587c.909.48,1.657.907,2.4,1.335l.161.1a6.84,6.84,0,0,1,2.079,1.548,4.688,4.688,0,0,1-.266,6.724" transform="translate(63.087 338.496)" fill="#eb9d22"/><path d="M277.881,269.668l-.107.587a2.335,2.335,0,0,1-.266.1c-1.067.107-2.081.214-3.146.268a59.388,59.388,0,0,1-7.581.426c-2.668-.1-5.337-.054-7.95-.054l-2.881.054a14.212,14.212,0,0,0-4.379.748c-4,1.279-7.95,2.347-11.951,2.135a16.629,16.629,0,0,1-3.736-.587c-.8-.268-1.545-.48-2.349-.748a40.79,40.79,0,0,0-6.777-1.76.99.99,0,0,1-.424-.107c-4.377-1.335-8.914-2.349-12.7-3.256-.8-.159-1.6-.373-2.4-.587a21.847,21.847,0,0,0-6.992-1.119c-1.175.051-2.347.051-3.468.1l-1.708.054-.214.107a7.074,7.074,0,0,1-.855.641,10.649,10.649,0,0,0-1.652,1.333c-2.722,2.722-6.19,3.682-10.62,2.936a30.245,30.245,0,0,1-4.747-1.389l-1.389-.427c-.268-.107-.534-.214-.853-.322a6.681,6.681,0,0,0-3.256-.692l-.319.107a3.127,3.127,0,0,0-.373.212,4.111,4.111,0,0,0-1.282.855c-1.6,1.547-3.468,1.76-5.922.48a24.145,24.145,0,0,1-4.377-2.829,19.52,19.52,0,0,0-5.656-3.2c-.534-.161-1.014-.373-1.5-.531a15.277,15.277,0,0,0-3.468-1.121,14.05,14.05,0,0,0-9.6,1.492,27.173,27.173,0,0,0-5.656,4.057,50.751,50.751,0,0,1-11.208,7.95,7.23,7.23,0,0,1-3.787,1.121c-3.417-2.24-5.388-4.589-6.3-7.577a2.968,2.968,0,0,0-1.867-2.3l-.907-.319-.214,1.387c-.051.375-.1.694-.159,1.07v1.172c-.056.694-.056,1.333-.159,1.92a12.7,12.7,0,0,0,.692,6.992,1.721,1.721,0,0,1,.051.587,8.724,8.724,0,0,1-2.4.373l-.536.054a2.191,2.191,0,0,1-1.282-.694c-1.974-2.242-4.053-4.962-4.533-8.591a16.778,16.778,0,0,0-.855-3.2,13.8,13.8,0,0,1-.478-1.443l-.429-1.333-.907.962c-1.708,1.706-1.974,3.787-2.3,5.763a16.026,16.026,0,0,1-.268,1.6,18.648,18.648,0,0,0,.161,7.257,3.257,3.257,0,0,1-1.92.054l-.375-.054A2.468,2.468,0,0,1,95.7,279.06a17.332,17.332,0,0,1-2.347-4.323c-.319-1.014-.748-2.028-1.121-2.934-.212-.48-.427-.96-.639-1.389-.322-.8-.641-1.6-.96-2.454l-.7-1.652-.21-.163a1.53,1.53,0,0,0-1.07-.1,1.936,1.936,0,0,0-1.014,1.121,4.285,4.285,0,0,0-.212,1.333L87.32,270.2c-.159,1.974-.322,3.9-.373,5.817a10.719,10.719,0,0,0,.107,1.92,6.889,6.889,0,0,0,.107,1.067v1.6H86.84a3.964,3.964,0,0,1-3.577-1.6,42.741,42.741,0,0,1-5.5-10.779,7.113,7.113,0,0,1-.319-1.655c-.054-.373-.054-.695-.107-1.067l-.214-1.175-2.505,1.494-.056.319c-.8,4.111-1.492,8.861-.373,13.45-.107.1-.159.1-.159.1s-.109,0-.375-.212c-.855-.748-1.655-1.494-2.505-2.3l-1.07-.96c-.48-1.333-1.067-2.72-1.655-4.055-1.387-3.149-2.827-6.456-3.146-10.14l-.107-.906-2.724.48-.159.375a18.819,18.819,0,0,0-1.974,7.1l-.159.96a18.223,18.223,0,0,0,.748,7.791,1.992,1.992,0,0,1-1.925-.212,3.246,3.246,0,0,1-1.706-1.547l-.214-.427a14.3,14.3,0,0,1-1.974-5.444,22.224,22.224,0,0,0-.907-4.7c-.268-1.067-.534-2.188-.694-3.256-.161-.746-.268-1.494-.427-2.293l-.319-1.974-.909.319c-.161.054-.319.054-.427.1a2.2,2.2,0,0,0-1.226.59,10.647,10.647,0,0,0-2.724,6.777c-.051.746-.1,1.547-.159,2.347a37.61,37.61,0,0,0,.054,8.11,1.47,1.47,0,0,1-.48.054,17.123,17.123,0,0,1-9.767-5.015,4.448,4.448,0,0,1-1.172-2.615,11.785,11.785,0,0,1,1.121-7.633,4.629,4.629,0,0,1,1.44-1.655,6.312,6.312,0,0,0,2.615-5.335v-.427a22.481,22.481,0,0,0-.322-4.962,13.811,13.811,0,0,1-.159-2.191V245.6a4.148,4.148,0,0,1,.907-2.72,2.491,2.491,0,0,1,2.03-1.121,21.068,21.068,0,0,1,7.523,1.172l.907.268c3.577,1.228,7.311,2.454,11.047,3.468A38.017,38.017,0,0,1,68,248.429a70.936,70.936,0,0,0,9.5,3.2c1.172.373,2.4.8,3.575,1.172a38.758,38.758,0,0,0,5.178,1.6c.8.161,1.65.322,2.505.534.8.214,1.6.375,2.454.534a77.828,77.828,0,0,0,20.546,1.6c.48-.054.962-.105,1.44-.161l1.762-.212-.319-.96c-.056-.107-.056-.214-.107-.268a1.017,1.017,0,0,0-.48-.8c-.482-.322-.909-.641-1.389-.96-1.333-.909-2.722-1.869-4.16-2.669-2.566-1.387-5.178-2.722-7.74-4l-2.135-1.067a26.472,26.472,0,0,0-2.666-1.121c-2.3-.855-4.538-1.708-6.833-2.561l-2.24-.8a4.988,4.988,0,0,0-1.172-.373l-3.258-.748c-1.869-.427-3.734-.853-5.6-1.333-1.28-.322-2.613-.694-3.948-1.067-1.016-.266-2.081-.534-3.149-.8-2.135-.531-4.216-1.065-6.4-1.6l-2.3-.585c-.536-.641-.536-.8-.27-2.028a5.226,5.226,0,0,1,2.724-1.016c3.468-.587,6.884-.159,10.513.268l2.079.268c2.3.266,4.7.585,7.045.692a40.131,40.131,0,0,1,9.071,1.333l3.9.909c2.137.48,4.216,1.014,6.349,1.494,2.99.748,6.246,1.389,9.5,1.867,3.095.429,6.188,1.067,9.176,1.655,2.191.373,4.323.8,6.46,1.175.746.107,1.438.214,2.186.322s1.547.212,2.3.317c1.014.214,2.028.375,2.988.536,2.881.48,5.817,1.014,8.7,1.708,2.135.531,4.323.853,6.458,1.172,1.813.268,3.734.587,5.549.96,2.776.641,5.551,1.067,8.22,1.443.96.159,1.867.319,2.773.426,2.508.427,5.018.96,7.472,1.494,1.28.322,2.561.587,3.894.853.907.214,1.813.268,2.883.429a55.225,55.225,0,0,1,10.723,1.92,20.373,20.373,0,0,0,2.456.48c.319.054.641.107,1.016.161,1.172.212,2.4.424,3.575.639,2.613.427,5.23.907,7.842,1.494,2.24.534,4.591.853,6.831,1.228,2.191.319,4.43.641,6.565,1.175,2.347.534,4.75.853,7.1,1.226,1.121.161,2.186.322,3.307.48,2.936.482,5.819,1.014,8.751,1.548l3.845.694a7.5,7.5,0,0,0,1.172.214l3.414.534c2.191.373,4.377.746,6.617,1.121,1.5.266,2.988.639,4.484.96l1.014.266c.96.214,1.976.427,2.934.695,1.44.319,2.829.641,4.272.96,1.012.214,2.025.319,2.881.427l.692.054a5.01,5.01,0,0,1,2.776.695,4.354,4.354,0,0,0,2.293.478h.322a2.539,2.539,0,0,1,1.974.962" transform="translate(44.054 285.634)" fill="#eb9d22"/><path d="M200.6,156a2.022,2.022,0,0,0-1.818-1.226l-4.428-.268c-1.813-.107-3.629-.268-5.5-.373-.534,0-1.07,0-1.655-.054a21.315,21.315,0,0,1-2.615-.107,62.4,62.4,0,0,0-7.737-.161c-.907.054-1.762.054-2.668.107-6.085.054-12.273.054-18.3.054H148.89a4.023,4.023,0,0,1-.8-.054c-.107,0-.266-.054-.373-.054l-2.668-.161c-3.843-.266-7.684-.531-11.527-.746-.322.054-.692.054-1.121.107a.192.192,0,0,1-.159.054,29.056,29.056,0,0,0-2.561,10.779c0,2.347-.054,4.643-.161,6.936l-.054,2.349a3.644,3.644,0,0,1-.268.746l-.266.536-.692.054a1.521,1.521,0,0,1-1.175-.322,4.607,4.607,0,0,1-.96-1.387c-1.815-4-2.137-8.378-2.244-12.168a35.58,35.58,0,0,1,.214-4.75c.056-.8.107-1.655.161-2.508a4.313,4.313,0,0,0-.1-.8h-.748a.973.973,0,0,1-.107.268,4.052,4.052,0,0,0-.534,1.228l-.214.639a31.587,31.587,0,0,0-1.121,6.512,10.394,10.394,0,0,1-1.28,5.123l-.212.429h-2.242l-.268-.322a12.293,12.293,0,0,1-2.347-4.642,24.3,24.3,0,0,1-.266-8.325l.1-1.443a1.024,1.024,0,0,0-.375-.107c-1.44-.159-2.827-.266-4.267-.424-1.333-.107-2.615-.214-3.894-.322-1.655-.161-3.309-.373-4.964-.587l-1.014-.1a5.943,5.943,0,0,1-.96-.161c-.375-.054-.8-.107-1.228-.161a107.853,107.853,0,0,1-16.382-2.293c-.855-.214-1.708-.429-2.561-.587-.694-.214-1.443-.375-2.135-.534-.962-.214-1.974-.427-2.936-.641-1.972-.373-4-.8-5.976-1.333a3.033,3.033,0,0,0-1.175-.214,4.521,4.521,0,0,0-2.988,1.387,9.177,9.177,0,0,0-1.655,2.349,18.63,18.63,0,0,0-1.335,3.626c-1.065,4-1.974,8.861-.907,13.876a14.72,14.72,0,0,1,.214,1.547,36.177,36.177,0,0,0,2.347,9.446l.268.692a12,12,0,0,0,1.974,3.789l.427.534a44.575,44.575,0,0,0,7.2,7.684l.429.375c2.079,1.6,4.055,3.095,6.617,3.414a3.976,3.976,0,0,1,.853.268,10.167,10.167,0,0,0,4.75,1.065l.694.056c.907.051,1.813.107,2.72.159,1.443.107,2.936.214,4.377.319a76.382,76.382,0,0,0,19.318-.478,136.889,136.889,0,0,1,14.193-1.494,80.085,80.085,0,0,0,9.874-.748c2.615-.319,5.335-.8,7.952-1.335,1.065-.161,2.133-.373,3.146-.585l.322-.054c1.28-.214,2.561-.429,3.841-.748l1.389-.322a36.77,36.77,0,0,1,6.029-1.014,8.23,8.23,0,0,0,1.547-.212c.587-.107,1.228-.266,1.813-.427,1.07-.214,2.137-.48,3.2-.641,2.51-.426,4.964-1.067,7.418-1.708,1.443-.426,2.934-.8,4.43-1.121a5.29,5.29,0,0,0,.641-.266l2.293-1.067c1.708-.8,3.417-1.548,5.123-2.4.641-.319,1.333-.641,2.028-.96a22.484,22.484,0,0,0,3.9-2.083c.48-.319.907-.639,1.387-.96.958-.639,1.869-1.28,2.72-1.974,3.417-2.881,5.123-5.71,5.551-9.073a4.565,4.565,0,0,1,.375-1.6c.958-2.4.692-4.857-.907-7.9m-3.9,11.42a14.547,14.547,0,0,1-6.081,8.005,6.754,6.754,0,0,1-1.228.587c-.587.159-1.228.373-1.869.531a32.76,32.76,0,0,0-3.254,1.016,24.3,24.3,0,0,1-8.381,1.065h-.051a6.36,6.36,0,0,1-4.7-1.92l-.424.534-.482-1.387c-2.135-5.978-2.771-10.779-2.079-15.531l.8.107-.8-.212c.214-1.5.317-1.655,1.706-3.149l.48-.534.59.48c.1.107.266.161.371.266a4.094,4.094,0,0,1,.962.962A3.741,3.741,0,0,1,172.8,160a21.23,21.23,0,0,0,.96,4.375c.212.96.478,1.867.692,2.773a6.056,6.056,0,0,0,1.923,3.843h.8c.748-.054,1.494-.054,2.186-.161,3.2-.585,6.139-1.121,8.914-1.706a15.613,15.613,0,0,0,2.72-1.014,4.815,4.815,0,0,0,2.776-3.577,8.779,8.779,0,0,1,.692-1.76l.107-.266a1.52,1.52,0,0,1,.7-.641l.851-.482.429.909a7.047,7.047,0,0,1,.159,5.123" transform="translate(73.574 178.271)" fill="#eb9d22"/><path d="M96.8,253.335a2.787,2.787,0,0,1-1.706,1.067,4.974,4.974,0,0,0-.7.214c-.266.051-.585.159-.851.212a55.749,55.749,0,0,0-10.781,3.095l-1.067.426a12.95,12.95,0,0,0-1.762.8l-.641.322a5.591,5.591,0,0,1-.587.317,4.913,4.913,0,0,1-1.065.536,30.116,30.116,0,0,0-4.857,2.081c-.8.373-1.6.8-2.454,1.121a17.782,17.782,0,0,1-8.166,1.813,30.405,30.405,0,0,1-4.321-.746,6.273,6.273,0,0,1-2.988-2.244,2.827,2.827,0,0,1-.534-1.918,15.471,15.471,0,0,1,.107-1.55c0-.426.051-.853.051-1.333,0-.268-.051-.587-.051-.853l-.107-.8-.534-.159a9.832,9.832,0,0,0-2.615-.429,8.671,8.671,0,0,0-3.256.694c-1.867.8-3.521,1.548-5.176,2.454A40.729,40.729,0,0,1,37.83,260.7c-1.333.587-2.776,1.175-4.109,1.867a26.018,26.018,0,0,1-6.94,2.03l-1.277.266c-3.682.746-7.418.214-10.727-.266a9.568,9.568,0,0,1-7.525-5.6,3.238,3.238,0,0,1-.373-1.067c-.534-3.734,0-6.351,1.655-8.483l.319-.429a25.264,25.264,0,0,1,3.309-3.787,15.592,15.592,0,0,1,3.9-2.3,39.465,39.465,0,0,1,5.067-1.6,13.6,13.6,0,0,0,5.015-2.454l.322-.268-.051-.424v-.268a1.972,1.972,0,0,0-.373-1.387,10.928,10.928,0,0,0-3.365-3.044l-.8-.424a51.25,51.25,0,0,0-6.509-2.99,36.606,36.606,0,0,1-6.884-3.575c-.587-.373-1.175-.748-1.76-1.067a29.58,29.58,0,0,1-3.843-2.668C.368,220.623-.487,217.8.261,214.114a9.665,9.665,0,0,1,.587-2.03,7.539,7.539,0,0,1,.266-.853c.212-.159.427-.373.641-.534a14.8,14.8,0,0,1,1.706-1.226,9.473,9.473,0,0,1,5.978-1.708,14.215,14.215,0,0,0,2.137,0c4.589-.427,8.856.8,13.5,2.4.107,0,.159.054.266.107a4.938,4.938,0,0,0,.641.214,20.319,20.319,0,0,1,8.539,4.16c.746.536,1.494,1.014,2.242,1.55.692.426,1.333.907,2.025,1.387a5.7,5.7,0,0,1,.855.746,6.638,6.638,0,0,0,1.282,1.123,93.882,93.882,0,0,1,10.618,8.271c.907.8,1.762,1.545,2.668,2.293.587.48,1.175,1.014,1.762,1.547,1.065.907,2.133,1.867,3.254,2.722.641.534,1.228,1.067,1.869,1.6.48.48,1.014.96,1.547,1.44,3.734,3.041,7.523,6.244,12.273,8.057.907.375,1.869.8,2.776,1.228.96.426,1.923.909,2.932,1.28l.429.161a26.283,26.283,0,0,0,7.418,2.03c1.121.054,2.24.212,3.361.319l.375.051a12.059,12.059,0,0,1,1.44.214c.48.161.907.322,1.443.534l.534.214Z" transform="translate(0 256.074)" fill="#eb9d22"/><path d="M273.606,272.863a4.045,4.045,0,0,1-1.014,1.869c-.159.266-.373.534-.534.8l-.107.161a8.05,8.05,0,0,1-2.771,3.149c-.056.054-.112.054-.163.107a2.478,2.478,0,0,1-.051-.855,9.876,9.876,0,0,0-.641-6.563c-.107-.373-.268-.694-.322-1.014a9.733,9.733,0,0,0-2.3-5.018l-.212-.266h-.373a1.356,1.356,0,0,0-1.6,1.333c-.1.8-.21,1.6-.266,2.4-.214,1.387-.373,2.773-.585,4.162a23.542,23.542,0,0,1-2.349,6.509l-.214.427a18.956,18.956,0,0,0-1.708,4.27,6.449,6.449,0,0,1-1.813,2.722,2.772,2.772,0,0,1-2.4.96c-.051-.161,0-.268.109-.639a11.6,11.6,0,0,1,.373-1.284,20.075,20.075,0,0,0,.534-10.672c-.214-1.014-.482-1.974-.748-2.881l-.319-1.067a3.275,3.275,0,0,0-1.813-2.242l-.48-.214-.375.268a3.945,3.945,0,0,0-1.548,3.149c0,.534-.054,1.121-.107,1.655v.266a19.777,19.777,0,0,1-2.827,8.912,11.412,11.412,0,0,0-.748,1.387c-.266.48-.48.909-.748,1.335a10.97,10.97,0,0,1-1.014,1.333l-.534.534-.159.107c-.8.268-1.335.48-1.976.107a4.4,4.4,0,0,1,.107-.748,37.814,37.814,0,0,0,.322-10.618,8.777,8.777,0,0,0-.962-3.47l-.1-.212-.212-.1a2.006,2.006,0,0,0-1.547-.27,1.867,1.867,0,0,0-.907.909,6.96,6.96,0,0,0-.7,2.4,13.455,13.455,0,0,1-2.135,5.5c-.585,1.014-1.172,1.974-1.813,2.881-.482.748-.96,1.389-1.44,2.135l-.426.587a8.1,8.1,0,0,1-3.2-.694,29.343,29.343,0,0,0,.266-7.47v-.536a6.83,6.83,0,0,0-1.708-4.267l-.641-.748-.639.748c-.054.1-.161.212-.212.319a2.032,2.032,0,0,0-.59.855c-.427,1.28-.8,2.561-1.172,3.894a15.589,15.589,0,0,1-2.347,4.589,21.237,21.237,0,0,1-1.443,1.708c-.212.214-.375.427-.587.639-.214.056-.427.056-.639.107a8.057,8.057,0,0,1-3.577.214c0-.639.054-1.282.054-1.92a16.473,16.473,0,0,0-.534-6.4l-.107-.319-.322-.161c-.266-.107-.585-.266-1.119-.48l-1.014-.426-.107,1.121c-.159,2.988-1.813,5.176-3.414,7.362-.748.962-1.443,1.282-2.4.962l-.266-2.988-.163-.321c-.107-.161-.159-.319-.266-.48a3.732,3.732,0,0,0-1.923-1.92,1.475,1.475,0,0,0-.958.054l-.27.054-.21.212a4.813,4.813,0,0,0-.962,3.2v.266a3.231,3.231,0,0,1-1.655,2.883l-.1.053c-.107,0-.27.054-.322.054l-2.934.054c-3.575.051-7.152.051-10.727.107-6.136,0-12.326,0-18.463-.056H165.6c-2.668,0-5.444,0-8.166-.212a73.654,73.654,0,0,1-8.323-1.228,2.589,2.589,0,0,1-1.925-1.121,3.516,3.516,0,0,1,.377-2.613h.051a6.308,6.308,0,0,1,3.361-.322,90.242,90.242,0,0,0,14.3-.427c1.44-.161,2.827-.375,4.267-.641l.8-.107c.96-.159,1.867-.319,2.776-.48a65.879,65.879,0,0,0,7.1-1.28c1.175-.322,2.347-.587,3.521-.853a56.71,56.71,0,0,0,6.992-1.815,18.889,18.889,0,0,1,2.988-.8l.48-.107a116.008,116.008,0,0,0,16.489-4.747,12.173,12.173,0,0,1,3.095-.855,61.574,61.574,0,0,0,13.5-4.055,43.6,43.6,0,0,1,7.735-2.081l.855-.161a21.619,21.619,0,0,0,3.417-.907,123.743,123.743,0,0,0,11.793-5.123,40.774,40.774,0,0,0,9.124-6.029,13.439,13.439,0,0,1,3.2-1.815l.587-.319a2.007,2.007,0,0,1,1.333-.161c2.028.587,4.055,1.44,4.91,3.682.212.694.426,1.333.585,2.028q.161.64.322,1.282l.107.266a83.392,83.392,0,0,1,2.668,10.459,16.2,16.2,0,0,1-.322,6.083" transform="translate(181.31 307.038)" fill="#eb9d22"/><path d="M52.862,240.414c-1.121.587-2.293.107-3.682-.427a37.544,37.544,0,0,1-6.721-3.363,33.1,33.1,0,0,1-8.22-6.989,9.61,9.61,0,0,0-.907-1.175,11.773,11.773,0,0,1-1.974-2.829,29.092,29.092,0,0,0-2.51-4.267,7.681,7.681,0,0,1-1.172-2.615c-.214-.8-.534-1.6-.8-2.4l-.161-.373a10.758,10.758,0,0,1,0-6.616,11.531,11.531,0,0,1,3.68-5.442,7.335,7.335,0,0,1,4.752-1.815,9.136,9.136,0,0,1,1.974.268,5.776,5.776,0,0,1,3.414,2.827,24.812,24.812,0,0,1,2.936,6.244A129.022,129.022,0,0,1,46.992,225.9a19.493,19.493,0,0,0,2.883,7.2c.694,1.067,1.282,2.188,1.867,3.309.268.587.587,1.119.855,1.655a2.4,2.4,0,0,1,.266,2.347" transform="translate(32.299 249.196)" fill="#eb9d22"/><path d="M236.129,278.309c-.161.159-.322.427-.534.639a19.076,19.076,0,0,1-1.706,1.869,6.293,6.293,0,0,1-8.113.212,20.213,20.213,0,0,1-5.23-5.23,22.552,22.552,0,0,0-3.629-3.841c-.534-.482-1.121-1.014-1.655-1.548a19.768,19.768,0,0,0-5.178-3.79,5.79,5.79,0,0,1-2.345-2.188,2.354,2.354,0,0,1,1.652-2.773,16.941,16.941,0,0,1,5.924-1.869,18.01,18.01,0,0,1,5.817,1.07,2.72,2.72,0,0,1,.585.266c.322.105.7.266,1.07.373,3.2.534,5.922,2.188,8.966,5.283a9.526,9.526,0,0,0,1.065,1.014,10.253,10.253,0,0,1,3.309,10.513" transform="translate(256.09 320.325)" fill="#eb9d22"/><path d="M234.682,258.738l-.748.534c-.48.373-.907.694-1.333,1.014a5.409,5.409,0,0,1-3.2,1.121,24.02,24.02,0,0,1-7.791-1.387,13.032,13.032,0,0,1-2.936-1.175,6.224,6.224,0,0,0-3.575-1.014,7.06,7.06,0,0,0-1.014.051,17.876,17.876,0,0,1-2.454.056.307.307,0,0,1-.214-.056,1.994,1.994,0,0,1,.534-1.065,9.825,9.825,0,0,1,3.841-2.668l1.389-.534c1.387-.534,2.776-1.067,4.162-1.548a14.45,14.45,0,0,1,8.751-.268,8.633,8.633,0,0,1,2.561,1.175l2.028,1.44a4.2,4.2,0,0,1,0,4.323" transform="translate(260.683 309.797)" fill="#eb9d22"/><path d="M28.235,222.167a1.1,1.1,0,0,1-1.175-.214l-.266-.159a11.239,11.239,0,0,1-1.177-.907c-2.347-2.456-4.267-4.535-6.188-6.67a5.061,5.061,0,0,1-.855-1.708l-.161-.534a40.113,40.113,0,0,1-1.387-4.91,6.121,6.121,0,0,1,1.6-5.442,3.979,3.979,0,0,1,3.95-1.175,4.44,4.44,0,0,1,3.309,3.1,25.463,25.463,0,0,1,.585,3.521c.159,1.548.268,3.044.429,4.535.212,2.03.371,4.057.641,6.085a11.114,11.114,0,0,0,.424,1.92c.109.322.212.641.319.962.163.746.214,1.226-.051,1.6" transform="translate(20.854 247.005)" fill="#eb9d22"/><path d="M126.217,20.836a26.015,26.015,0,0,1-7.367,4.484,56.863,56.863,0,0,1-7.1,2.079c-1.545.375-3.041.748-4.538,1.175a9.241,9.241,0,0,1-3.412.373,2,2,0,0,1-1.6-.746,2.32,2.32,0,0,1-.322-2.081c.109-.375.322-.8.48-1.228l2.349-5.71a8.183,8.183,0,0,1,2.72-1.547c1.389-.48,2.778-1.014,4.165-1.547,1.547-.587,3.039-1.175,4.642-1.706a9.36,9.36,0,0,1,8.057.478,8.688,8.688,0,0,1,1.548,1.228c.161.107.322.266.48.373a8.646,8.646,0,0,1-.1,4.377" transform="translate(125.493 16.893)" fill="#eb9d22"/></g></svg>